<mxfile host="app.diagrams.net" agent="Mozilla/5.0 (Windows NT 10.0; Win64; x64) AppleWebKit/537.36 (KHTML, like Gecko) Chrome/127.0.0.0 Safari/537.36 OPR/113.0.0.0" version="24.8.3">
  <diagram name="Página-1" id="AO7WdMNY2Zxb_DElSUvR">
    <mxGraphModel dx="1360" dy="660" grid="1" gridSize="10" guides="1" tooltips="1" connect="1" arrows="1" fold="1" page="1" pageScale="1" pageWidth="827" pageHeight="1169" math="0" shadow="0">
      <root>
        <mxCell id="0" />
        <mxCell id="1" parent="0" />
        <mxCell id="SNmzpBZW4eqEvUiJXJsY-2" value="" style="rounded=1;whiteSpace=wrap;html=1;" parent="1" vertex="1">
          <mxGeometry x="50" y="100" width="190" height="60" as="geometry" />
        </mxCell>
        <mxCell id="SNmzpBZW4eqEvUiJXJsY-3" value="" style="rounded=1;whiteSpace=wrap;html=1;" parent="1" vertex="1">
          <mxGeometry x="360" y="100" width="200" height="60" as="geometry" />
        </mxCell>
        <mxCell id="SNmzpBZW4eqEvUiJXJsY-4" value="" style="rounded=1;whiteSpace=wrap;html=1;" parent="1" vertex="1">
          <mxGeometry x="670" y="100" width="160" height="60" as="geometry" />
        </mxCell>
        <mxCell id="SNmzpBZW4eqEvUiJXJsY-5" value="Livro" style="text;html=1;align=center;verticalAlign=middle;whiteSpace=wrap;rounded=0;" parent="1" vertex="1">
          <mxGeometry x="110" y="115" width="60" height="30" as="geometry" />
        </mxCell>
        <mxCell id="SNmzpBZW4eqEvUiJXJsY-6" value="Emprestimo" style="text;html=1;align=center;verticalAlign=middle;whiteSpace=wrap;rounded=0;" parent="1" vertex="1">
          <mxGeometry x="430" y="115" width="60" height="30" as="geometry" />
        </mxCell>
        <mxCell id="SNmzpBZW4eqEvUiJXJsY-7" value="Usuário" style="text;html=1;align=center;verticalAlign=middle;whiteSpace=wrap;rounded=0;" parent="1" vertex="1">
          <mxGeometry x="720" y="115" width="60" height="30" as="geometry" />
        </mxCell>
        <mxCell id="SNmzpBZW4eqEvUiJXJsY-8" value="" style="endArrow=none;html=1;rounded=0;exitX=0;exitY=0.5;exitDx=0;exitDy=0;" parent="1" source="SNmzpBZW4eqEvUiJXJsY-11" edge="1">
          <mxGeometry width="50" height="50" relative="1" as="geometry">
            <mxPoint x="240" y="230" as="sourcePoint" />
            <mxPoint x="197" y="162" as="targetPoint" />
            <Array as="points">
              <mxPoint x="197" y="225" />
            </Array>
          </mxGeometry>
        </mxCell>
        <mxCell id="SNmzpBZW4eqEvUiJXJsY-9" value="" style="endArrow=none;html=1;rounded=0;entryX=0.693;entryY=1.022;entryDx=0;entryDy=0;exitX=0;exitY=0.5;exitDx=0;exitDy=0;entryPerimeter=0;" parent="1" source="SNmzpBZW4eqEvUiJXJsY-14" target="SNmzpBZW4eqEvUiJXJsY-2" edge="1">
          <mxGeometry width="50" height="50" relative="1" as="geometry">
            <mxPoint x="240" y="260" as="sourcePoint" />
            <mxPoint x="207" y="172" as="targetPoint" />
            <Array as="points">
              <mxPoint x="180" y="265" />
            </Array>
          </mxGeometry>
        </mxCell>
        <mxCell id="SNmzpBZW4eqEvUiJXJsY-10" value="" style="endArrow=none;html=1;rounded=0;exitX=0;exitY=0.5;exitDx=0;exitDy=0;entryX=0.6;entryY=1.022;entryDx=0;entryDy=0;entryPerimeter=0;" parent="1" source="SNmzpBZW4eqEvUiJXJsY-15" target="SNmzpBZW4eqEvUiJXJsY-2" edge="1">
          <mxGeometry width="50" height="50" relative="1" as="geometry">
            <mxPoint x="240" y="300" as="sourcePoint" />
            <mxPoint x="160" y="170" as="targetPoint" />
            <Array as="points">
              <mxPoint x="160" y="305" />
            </Array>
          </mxGeometry>
        </mxCell>
        <mxCell id="SNmzpBZW4eqEvUiJXJsY-11" value="&lt;div&gt;&lt;br&gt;&lt;/div&gt;&lt;div&gt;&lt;br&gt;&lt;/div&gt;&lt;div&gt;&lt;br&gt;&lt;/div&gt;" style="ellipse;whiteSpace=wrap;html=1;" parent="1" vertex="1">
          <mxGeometry x="240" y="210" width="80" height="30" as="geometry" />
        </mxCell>
        <mxCell id="SNmzpBZW4eqEvUiJXJsY-12" value="IDLivro" style="text;html=1;align=center;verticalAlign=middle;whiteSpace=wrap;rounded=0;" parent="1" vertex="1">
          <mxGeometry x="250" y="210" width="60" height="30" as="geometry" />
        </mxCell>
        <mxCell id="SNmzpBZW4eqEvUiJXJsY-14" value="" style="ellipse;whiteSpace=wrap;html=1;" parent="1" vertex="1">
          <mxGeometry x="220" y="250" width="80" height="30" as="geometry" />
        </mxCell>
        <mxCell id="SNmzpBZW4eqEvUiJXJsY-15" value="" style="ellipse;whiteSpace=wrap;html=1;" parent="1" vertex="1">
          <mxGeometry x="200" y="290" width="80" height="30" as="geometry" />
        </mxCell>
        <mxCell id="SNmzpBZW4eqEvUiJXJsY-16" value="" style="endArrow=none;html=1;rounded=0;exitX=0;exitY=0.5;exitDx=0;exitDy=0;entryX=0.5;entryY=1;entryDx=0;entryDy=0;" parent="1" source="SNmzpBZW4eqEvUiJXJsY-21" target="SNmzpBZW4eqEvUiJXJsY-2" edge="1">
          <mxGeometry width="50" height="50" relative="1" as="geometry">
            <mxPoint x="190" y="340" as="sourcePoint" />
            <mxPoint x="140" y="170" as="targetPoint" />
            <Array as="points">
              <mxPoint x="140" y="345" />
            </Array>
          </mxGeometry>
        </mxCell>
        <mxCell id="SNmzpBZW4eqEvUiJXJsY-17" value="Título" style="text;html=1;align=center;verticalAlign=middle;whiteSpace=wrap;rounded=0;" parent="1" vertex="1">
          <mxGeometry x="230" y="250" width="60" height="30" as="geometry" />
        </mxCell>
        <mxCell id="SNmzpBZW4eqEvUiJXJsY-18" value="Autor" style="text;html=1;align=center;verticalAlign=middle;whiteSpace=wrap;rounded=0;" parent="1" vertex="1">
          <mxGeometry x="210" y="290" width="60" height="30" as="geometry" />
        </mxCell>
        <mxCell id="SNmzpBZW4eqEvUiJXJsY-21" value="" style="ellipse;whiteSpace=wrap;html=1;" parent="1" vertex="1">
          <mxGeometry x="180" y="330" width="80" height="30" as="geometry" />
        </mxCell>
        <mxCell id="SNmzpBZW4eqEvUiJXJsY-22" value="" style="ellipse;whiteSpace=wrap;html=1;" parent="1" vertex="1">
          <mxGeometry x="160" y="370" width="80" height="30" as="geometry" />
        </mxCell>
        <mxCell id="SNmzpBZW4eqEvUiJXJsY-23" value="" style="ellipse;whiteSpace=wrap;html=1;" parent="1" vertex="1">
          <mxGeometry x="140" y="410" width="80" height="30" as="geometry" />
        </mxCell>
        <mxCell id="SNmzpBZW4eqEvUiJXJsY-26" value="Editora" style="text;html=1;align=center;verticalAlign=middle;whiteSpace=wrap;rounded=0;" parent="1" vertex="1">
          <mxGeometry x="190" y="330" width="60" height="30" as="geometry" />
        </mxCell>
        <mxCell id="SNmzpBZW4eqEvUiJXJsY-27" value="Gênero" style="text;html=1;align=center;verticalAlign=middle;whiteSpace=wrap;rounded=0;" parent="1" vertex="1">
          <mxGeometry x="170" y="370" width="60" height="30" as="geometry" />
        </mxCell>
        <mxCell id="SNmzpBZW4eqEvUiJXJsY-28" value="&lt;font style=&quot;font-size: 11px;&quot;&gt;Disponibilidade&lt;/font&gt;" style="text;html=1;align=center;verticalAlign=middle;whiteSpace=wrap;rounded=0;" parent="1" vertex="1">
          <mxGeometry x="150" y="410" width="60" height="30" as="geometry" />
        </mxCell>
        <mxCell id="SNmzpBZW4eqEvUiJXJsY-29" value="" style="endArrow=none;html=1;rounded=0;exitX=0;exitY=0.5;exitDx=0;exitDy=0;entryX=0.3;entryY=1;entryDx=0;entryDy=0;entryPerimeter=0;" parent="1" target="SNmzpBZW4eqEvUiJXJsY-2" edge="1">
          <mxGeometry width="50" height="50" relative="1" as="geometry">
            <mxPoint x="140" y="425" as="sourcePoint" />
            <mxPoint x="100" y="250" as="targetPoint" />
            <Array as="points">
              <mxPoint x="100" y="425" />
            </Array>
          </mxGeometry>
        </mxCell>
        <mxCell id="SNmzpBZW4eqEvUiJXJsY-30" value="" style="endArrow=none;html=1;rounded=0;exitX=0;exitY=0.5;exitDx=0;exitDy=0;entryX=0.4;entryY=1;entryDx=0;entryDy=0;entryPerimeter=0;" parent="1" target="SNmzpBZW4eqEvUiJXJsY-2" edge="1">
          <mxGeometry width="50" height="50" relative="1" as="geometry">
            <mxPoint x="160" y="385" as="sourcePoint" />
            <mxPoint x="120" y="170" as="targetPoint" />
            <Array as="points">
              <mxPoint x="120" y="385" />
            </Array>
          </mxGeometry>
        </mxCell>
        <mxCell id="SNmzpBZW4eqEvUiJXJsY-31" value="" style="endArrow=none;html=1;rounded=0;exitX=0;exitY=0.5;exitDx=0;exitDy=0;" parent="1" source="SNmzpBZW4eqEvUiJXJsY-34" edge="1">
          <mxGeometry width="50" height="50" relative="1" as="geometry">
            <mxPoint x="540" y="230" as="sourcePoint" />
            <mxPoint x="497" y="162" as="targetPoint" />
            <Array as="points">
              <mxPoint x="497" y="225" />
            </Array>
          </mxGeometry>
        </mxCell>
        <mxCell id="SNmzpBZW4eqEvUiJXJsY-32" value="" style="endArrow=none;html=1;rounded=0;entryX=0.693;entryY=1.022;entryDx=0;entryDy=0;exitX=0;exitY=0.5;exitDx=0;exitDy=0;entryPerimeter=0;" parent="1" source="SNmzpBZW4eqEvUiJXJsY-36" edge="1">
          <mxGeometry width="50" height="50" relative="1" as="geometry">
            <mxPoint x="540" y="260" as="sourcePoint" />
            <mxPoint x="479" y="161" as="targetPoint" />
            <Array as="points">
              <mxPoint x="480" y="265" />
            </Array>
          </mxGeometry>
        </mxCell>
        <mxCell id="SNmzpBZW4eqEvUiJXJsY-33" value="" style="endArrow=none;html=1;rounded=0;exitX=0;exitY=0.5;exitDx=0;exitDy=0;entryX=0.6;entryY=1.022;entryDx=0;entryDy=0;entryPerimeter=0;" parent="1" source="SNmzpBZW4eqEvUiJXJsY-37" edge="1">
          <mxGeometry width="50" height="50" relative="1" as="geometry">
            <mxPoint x="540" y="300" as="sourcePoint" />
            <mxPoint x="460" y="161" as="targetPoint" />
            <Array as="points">
              <mxPoint x="460" y="305" />
            </Array>
          </mxGeometry>
        </mxCell>
        <mxCell id="SNmzpBZW4eqEvUiJXJsY-34" value="&lt;div&gt;&lt;br&gt;&lt;/div&gt;&lt;div&gt;&lt;br&gt;&lt;/div&gt;&lt;div&gt;&lt;br&gt;&lt;/div&gt;" style="ellipse;whiteSpace=wrap;html=1;" parent="1" vertex="1">
          <mxGeometry x="540" y="210" width="80" height="30" as="geometry" />
        </mxCell>
        <mxCell id="SNmzpBZW4eqEvUiJXJsY-35" value="ID" style="text;html=1;align=center;verticalAlign=middle;whiteSpace=wrap;rounded=0;" parent="1" vertex="1">
          <mxGeometry x="550" y="210" width="60" height="30" as="geometry" />
        </mxCell>
        <mxCell id="SNmzpBZW4eqEvUiJXJsY-36" value="" style="ellipse;whiteSpace=wrap;html=1;" parent="1" vertex="1">
          <mxGeometry x="520" y="250" width="80" height="30" as="geometry" />
        </mxCell>
        <mxCell id="SNmzpBZW4eqEvUiJXJsY-37" value="" style="ellipse;whiteSpace=wrap;html=1;" parent="1" vertex="1">
          <mxGeometry x="500" y="290" width="80" height="30" as="geometry" />
        </mxCell>
        <mxCell id="SNmzpBZW4eqEvUiJXJsY-38" value="" style="endArrow=none;html=1;rounded=0;exitX=0;exitY=0.5;exitDx=0;exitDy=0;entryX=0.5;entryY=1;entryDx=0;entryDy=0;" parent="1" source="SNmzpBZW4eqEvUiJXJsY-41" edge="1">
          <mxGeometry width="50" height="50" relative="1" as="geometry">
            <mxPoint x="490" y="340" as="sourcePoint" />
            <mxPoint x="440" y="160" as="targetPoint" />
            <Array as="points">
              <mxPoint x="440" y="345" />
            </Array>
          </mxGeometry>
        </mxCell>
        <mxCell id="SNmzpBZW4eqEvUiJXJsY-39" value="IDLivro" style="text;html=1;align=center;verticalAlign=middle;whiteSpace=wrap;rounded=0;" parent="1" vertex="1">
          <mxGeometry x="530" y="250" width="60" height="30" as="geometry" />
        </mxCell>
        <mxCell id="SNmzpBZW4eqEvUiJXJsY-40" value="IDUsuário" style="text;html=1;align=center;verticalAlign=middle;whiteSpace=wrap;rounded=0;" parent="1" vertex="1">
          <mxGeometry x="510" y="290" width="60" height="30" as="geometry" />
        </mxCell>
        <mxCell id="SNmzpBZW4eqEvUiJXJsY-41" value="" style="ellipse;whiteSpace=wrap;html=1;" parent="1" vertex="1">
          <mxGeometry x="480" y="330" width="80" height="30" as="geometry" />
        </mxCell>
        <mxCell id="SNmzpBZW4eqEvUiJXJsY-42" value="" style="ellipse;whiteSpace=wrap;html=1;" parent="1" vertex="1">
          <mxGeometry x="460" y="370" width="80" height="30" as="geometry" />
        </mxCell>
        <mxCell id="SNmzpBZW4eqEvUiJXJsY-43" value="" style="ellipse;whiteSpace=wrap;html=1;" parent="1" vertex="1">
          <mxGeometry x="440" y="410" width="80" height="30" as="geometry" />
        </mxCell>
        <mxCell id="SNmzpBZW4eqEvUiJXJsY-44" value="&lt;font style=&quot;font-size: 11px;&quot;&gt;Data de emprestimo&lt;/font&gt;" style="text;html=1;align=center;verticalAlign=middle;whiteSpace=wrap;rounded=0;" parent="1" vertex="1">
          <mxGeometry x="490" y="330" width="60" height="30" as="geometry" />
        </mxCell>
        <mxCell id="SNmzpBZW4eqEvUiJXJsY-45" value="&lt;font style=&quot;font-size: 11px;&quot;&gt;Data de devolução&lt;/font&gt;" style="text;html=1;align=center;verticalAlign=middle;whiteSpace=wrap;rounded=0;" parent="1" vertex="1">
          <mxGeometry x="470" y="370" width="60" height="30" as="geometry" />
        </mxCell>
        <mxCell id="SNmzpBZW4eqEvUiJXJsY-46" value="Status" style="text;html=1;align=center;verticalAlign=middle;whiteSpace=wrap;rounded=0;" parent="1" vertex="1">
          <mxGeometry x="450" y="410" width="60" height="30" as="geometry" />
        </mxCell>
        <mxCell id="SNmzpBZW4eqEvUiJXJsY-47" value="" style="endArrow=none;html=1;rounded=0;exitX=0;exitY=0.5;exitDx=0;exitDy=0;entryX=0.3;entryY=1;entryDx=0;entryDy=0;entryPerimeter=0;" parent="1" edge="1">
          <mxGeometry width="50" height="50" relative="1" as="geometry">
            <mxPoint x="440" y="425" as="sourcePoint" />
            <mxPoint x="400" y="160" as="targetPoint" />
            <Array as="points">
              <mxPoint x="400" y="425" />
            </Array>
          </mxGeometry>
        </mxCell>
        <mxCell id="SNmzpBZW4eqEvUiJXJsY-48" value="" style="endArrow=none;html=1;rounded=0;exitX=0;exitY=0.5;exitDx=0;exitDy=0;entryX=0.4;entryY=1;entryDx=0;entryDy=0;entryPerimeter=0;" parent="1" edge="1">
          <mxGeometry width="50" height="50" relative="1" as="geometry">
            <mxPoint x="460" y="385" as="sourcePoint" />
            <mxPoint x="420" y="160" as="targetPoint" />
            <Array as="points">
              <mxPoint x="420" y="385" />
            </Array>
          </mxGeometry>
        </mxCell>
        <mxCell id="SNmzpBZW4eqEvUiJXJsY-49" value="" style="endArrow=none;html=1;rounded=0;exitX=0;exitY=0.5;exitDx=0;exitDy=0;" parent="1" source="SNmzpBZW4eqEvUiJXJsY-52" edge="1">
          <mxGeometry width="50" height="50" relative="1" as="geometry">
            <mxPoint x="850" y="230" as="sourcePoint" />
            <mxPoint x="807" y="162" as="targetPoint" />
            <Array as="points">
              <mxPoint x="807" y="225" />
            </Array>
          </mxGeometry>
        </mxCell>
        <mxCell id="SNmzpBZW4eqEvUiJXJsY-50" value="" style="endArrow=none;html=1;rounded=0;entryX=0.693;entryY=1.022;entryDx=0;entryDy=0;exitX=0;exitY=0.5;exitDx=0;exitDy=0;entryPerimeter=0;" parent="1" source="SNmzpBZW4eqEvUiJXJsY-54" edge="1">
          <mxGeometry width="50" height="50" relative="1" as="geometry">
            <mxPoint x="850" y="260" as="sourcePoint" />
            <mxPoint x="789" y="161" as="targetPoint" />
            <Array as="points">
              <mxPoint x="790" y="265" />
            </Array>
          </mxGeometry>
        </mxCell>
        <mxCell id="SNmzpBZW4eqEvUiJXJsY-51" value="" style="endArrow=none;html=1;rounded=0;exitX=0;exitY=0.5;exitDx=0;exitDy=0;entryX=0.6;entryY=1.022;entryDx=0;entryDy=0;entryPerimeter=0;" parent="1" source="SNmzpBZW4eqEvUiJXJsY-55" edge="1">
          <mxGeometry width="50" height="50" relative="1" as="geometry">
            <mxPoint x="850" y="300" as="sourcePoint" />
            <mxPoint x="770" y="161" as="targetPoint" />
            <Array as="points">
              <mxPoint x="770" y="305" />
            </Array>
          </mxGeometry>
        </mxCell>
        <mxCell id="SNmzpBZW4eqEvUiJXJsY-52" value="&lt;div&gt;&lt;br&gt;&lt;/div&gt;&lt;div&gt;&lt;br&gt;&lt;/div&gt;&lt;div&gt;&lt;br&gt;&lt;/div&gt;" style="ellipse;whiteSpace=wrap;html=1;" parent="1" vertex="1">
          <mxGeometry x="850" y="210" width="80" height="30" as="geometry" />
        </mxCell>
        <mxCell id="SNmzpBZW4eqEvUiJXJsY-53" value="IDUsuário" style="text;html=1;align=center;verticalAlign=middle;whiteSpace=wrap;rounded=0;" parent="1" vertex="1">
          <mxGeometry x="860" y="210" width="60" height="30" as="geometry" />
        </mxCell>
        <mxCell id="SNmzpBZW4eqEvUiJXJsY-54" value="" style="ellipse;whiteSpace=wrap;html=1;" parent="1" vertex="1">
          <mxGeometry x="830" y="250" width="80" height="30" as="geometry" />
        </mxCell>
        <mxCell id="SNmzpBZW4eqEvUiJXJsY-55" value="" style="ellipse;whiteSpace=wrap;html=1;" parent="1" vertex="1">
          <mxGeometry x="810" y="290" width="80" height="30" as="geometry" />
        </mxCell>
        <mxCell id="SNmzpBZW4eqEvUiJXJsY-56" value="" style="endArrow=none;html=1;rounded=0;exitX=0;exitY=0.5;exitDx=0;exitDy=0;entryX=0.5;entryY=1;entryDx=0;entryDy=0;" parent="1" source="SNmzpBZW4eqEvUiJXJsY-59" edge="1">
          <mxGeometry width="50" height="50" relative="1" as="geometry">
            <mxPoint x="800" y="340" as="sourcePoint" />
            <mxPoint x="750" y="160" as="targetPoint" />
            <Array as="points">
              <mxPoint x="750" y="345" />
            </Array>
          </mxGeometry>
        </mxCell>
        <mxCell id="SNmzpBZW4eqEvUiJXJsY-57" value="Nome" style="text;html=1;align=center;verticalAlign=middle;whiteSpace=wrap;rounded=0;" parent="1" vertex="1">
          <mxGeometry x="840" y="250" width="60" height="30" as="geometry" />
        </mxCell>
        <mxCell id="SNmzpBZW4eqEvUiJXJsY-58" value="Email" style="text;html=1;align=center;verticalAlign=middle;whiteSpace=wrap;rounded=0;" parent="1" vertex="1">
          <mxGeometry x="820" y="290" width="60" height="30" as="geometry" />
        </mxCell>
        <mxCell id="SNmzpBZW4eqEvUiJXJsY-59" value="" style="ellipse;whiteSpace=wrap;html=1;" parent="1" vertex="1">
          <mxGeometry x="790" y="330" width="80" height="30" as="geometry" />
        </mxCell>
        <mxCell id="SNmzpBZW4eqEvUiJXJsY-60" value="" style="ellipse;whiteSpace=wrap;html=1;" parent="1" vertex="1">
          <mxGeometry x="770" y="370" width="80" height="30" as="geometry" />
        </mxCell>
        <mxCell id="SNmzpBZW4eqEvUiJXJsY-61" value="" style="ellipse;whiteSpace=wrap;html=1;" parent="1" vertex="1">
          <mxGeometry x="750" y="410" width="80" height="30" as="geometry" />
        </mxCell>
        <mxCell id="SNmzpBZW4eqEvUiJXJsY-62" value="Telefone" style="text;html=1;align=center;verticalAlign=middle;whiteSpace=wrap;rounded=0;" parent="1" vertex="1">
          <mxGeometry x="800" y="330" width="60" height="30" as="geometry" />
        </mxCell>
        <mxCell id="SNmzpBZW4eqEvUiJXJsY-63" value="Documento" style="text;html=1;align=center;verticalAlign=middle;whiteSpace=wrap;rounded=0;" parent="1" vertex="1">
          <mxGeometry x="780" y="370" width="60" height="30" as="geometry" />
        </mxCell>
        <mxCell id="SNmzpBZW4eqEvUiJXJsY-64" value="Endereço" style="text;html=1;align=center;verticalAlign=middle;whiteSpace=wrap;rounded=0;" parent="1" vertex="1">
          <mxGeometry x="760" y="410" width="60" height="30" as="geometry" />
        </mxCell>
        <mxCell id="SNmzpBZW4eqEvUiJXJsY-65" value="" style="endArrow=none;html=1;rounded=0;exitX=0;exitY=0.5;exitDx=0;exitDy=0;entryX=0.3;entryY=1;entryDx=0;entryDy=0;entryPerimeter=0;" parent="1" edge="1">
          <mxGeometry width="50" height="50" relative="1" as="geometry">
            <mxPoint x="750" y="425" as="sourcePoint" />
            <mxPoint x="710" y="160" as="targetPoint" />
            <Array as="points">
              <mxPoint x="710" y="425" />
            </Array>
          </mxGeometry>
        </mxCell>
        <mxCell id="SNmzpBZW4eqEvUiJXJsY-66" value="" style="endArrow=none;html=1;rounded=0;exitX=0;exitY=0.5;exitDx=0;exitDy=0;entryX=0.4;entryY=1;entryDx=0;entryDy=0;entryPerimeter=0;" parent="1" edge="1">
          <mxGeometry width="50" height="50" relative="1" as="geometry">
            <mxPoint x="770" y="385" as="sourcePoint" />
            <mxPoint x="730" y="160" as="targetPoint" />
            <Array as="points">
              <mxPoint x="730" y="385" />
            </Array>
          </mxGeometry>
        </mxCell>
        <mxCell id="SNmzpBZW4eqEvUiJXJsY-67" value="" style="endArrow=none;html=1;rounded=0;entryX=0.3;entryY=1;entryDx=0;entryDy=0;entryPerimeter=0;exitX=0;exitY=0.5;exitDx=0;exitDy=0;" parent="1" source="SNmzpBZW4eqEvUiJXJsY-68" edge="1">
          <mxGeometry width="50" height="50" relative="1" as="geometry">
            <mxPoint x="730" y="450" as="sourcePoint" />
            <mxPoint x="690" y="160" as="targetPoint" />
            <Array as="points">
              <mxPoint x="690" y="465" />
            </Array>
          </mxGeometry>
        </mxCell>
        <mxCell id="SNmzpBZW4eqEvUiJXJsY-68" value="" style="ellipse;whiteSpace=wrap;html=1;" parent="1" vertex="1">
          <mxGeometry x="730" y="450" width="80" height="30" as="geometry" />
        </mxCell>
        <mxCell id="SNmzpBZW4eqEvUiJXJsY-69" value="Idade" style="text;html=1;align=center;verticalAlign=middle;whiteSpace=wrap;rounded=0;" parent="1" vertex="1">
          <mxGeometry x="740" y="450" width="60" height="30" as="geometry" />
        </mxCell>
        <mxCell id="SNmzpBZW4eqEvUiJXJsY-70" value="" style="rhombus;whiteSpace=wrap;html=1;" parent="1" vertex="1">
          <mxGeometry x="590" y="112.5" width="60" height="35" as="geometry" />
        </mxCell>
        <mxCell id="SNmzpBZW4eqEvUiJXJsY-71" value="&lt;font style=&quot;font-size: 10px;&quot;&gt;Realiza&lt;/font&gt;" style="text;html=1;align=center;verticalAlign=middle;whiteSpace=wrap;rounded=0;" parent="1" vertex="1">
          <mxGeometry x="590" y="115" width="60" height="30" as="geometry" />
        </mxCell>
        <mxCell id="SNmzpBZW4eqEvUiJXJsY-73" value="" style="rhombus;whiteSpace=wrap;html=1;" parent="1" vertex="1">
          <mxGeometry x="270" y="112.5" width="60" height="35" as="geometry" />
        </mxCell>
        <mxCell id="SNmzpBZW4eqEvUiJXJsY-74" value="" style="endArrow=none;html=1;rounded=0;entryX=1;entryY=0.5;entryDx=0;entryDy=0;" parent="1" target="SNmzpBZW4eqEvUiJXJsY-75" edge="1">
          <mxGeometry width="50" height="50" relative="1" as="geometry">
            <mxPoint x="360" y="130" as="sourcePoint" />
            <mxPoint x="420" y="80" as="targetPoint" />
            <Array as="points">
              <mxPoint x="350" y="130" />
            </Array>
          </mxGeometry>
        </mxCell>
        <mxCell id="SNmzpBZW4eqEvUiJXJsY-75" value="Contém" style="text;html=1;align=center;verticalAlign=middle;whiteSpace=wrap;rounded=0;" parent="1" vertex="1">
          <mxGeometry x="270" y="115" width="60" height="30" as="geometry" />
        </mxCell>
        <mxCell id="SNmzpBZW4eqEvUiJXJsY-76" value="" style="endArrow=none;html=1;rounded=0;entryX=1;entryY=0.5;entryDx=0;entryDy=0;" parent="1" target="SNmzpBZW4eqEvUiJXJsY-2" edge="1">
          <mxGeometry width="50" height="50" relative="1" as="geometry">
            <mxPoint x="270" y="130" as="sourcePoint" />
            <mxPoint x="340" y="140" as="targetPoint" />
            <Array as="points" />
          </mxGeometry>
        </mxCell>
        <mxCell id="SNmzpBZW4eqEvUiJXJsY-77" value="" style="endArrow=none;html=1;rounded=0;entryX=1;entryY=0.5;entryDx=0;entryDy=0;exitX=1;exitY=0.5;exitDx=0;exitDy=0;" parent="1" source="SNmzpBZW4eqEvUiJXJsY-3" target="SNmzpBZW4eqEvUiJXJsY-3" edge="1">
          <mxGeometry width="50" height="50" relative="1" as="geometry">
            <mxPoint x="390" y="150" as="sourcePoint" />
            <mxPoint x="350" y="150" as="targetPoint" />
            <Array as="points">
              <mxPoint x="590" y="130" />
              <mxPoint x="580" y="130" />
            </Array>
          </mxGeometry>
        </mxCell>
        <mxCell id="SNmzpBZW4eqEvUiJXJsY-78" value="" style="endArrow=none;html=1;rounded=0;exitX=0;exitY=0.5;exitDx=0;exitDy=0;" parent="1" source="SNmzpBZW4eqEvUiJXJsY-4" edge="1">
          <mxGeometry width="50" height="50" relative="1" as="geometry">
            <mxPoint x="400" y="160" as="sourcePoint" />
            <mxPoint x="650" y="130" as="targetPoint" />
            <Array as="points" />
          </mxGeometry>
        </mxCell>
        <mxCell id="SNmzpBZW4eqEvUiJXJsY-79" value="N" style="text;html=1;align=center;verticalAlign=middle;whiteSpace=wrap;rounded=0;" parent="1" vertex="1">
          <mxGeometry x="220" y="100" width="60" height="30" as="geometry" />
        </mxCell>
        <mxCell id="SNmzpBZW4eqEvUiJXJsY-80" value="N" style="text;html=1;align=center;verticalAlign=middle;whiteSpace=wrap;rounded=0;" parent="1" vertex="1">
          <mxGeometry x="540" y="100" width="60" height="30" as="geometry" />
        </mxCell>
        <mxCell id="SNmzpBZW4eqEvUiJXJsY-81" value="1" style="text;html=1;align=center;verticalAlign=middle;whiteSpace=wrap;rounded=0;" parent="1" vertex="1">
          <mxGeometry x="320" y="100" width="60" height="30" as="geometry" />
        </mxCell>
        <mxCell id="SNmzpBZW4eqEvUiJXJsY-82" value="1" style="text;html=1;align=center;verticalAlign=middle;whiteSpace=wrap;rounded=0;" parent="1" vertex="1">
          <mxGeometry x="630" y="100" width="60" height="30" as="geometry" />
        </mxCell>
        <mxCell id="rQuMdEPPs-8JV-t17J9N-1" value="" style="shape=image;verticalLabelPosition=bottom;labelBackgroundColor=default;verticalAlign=top;aspect=fixed;imageAspect=0;image=data:image/png,iVBORw0KGgoAAAANSUhEUgAAAUgAAACxCAYAAACm/iRWAAAAAXNSR0IArs4c6QAAAARnQU1BAACxjwv8YQUAAAAJcEhZcwAADsMAAA7DAcdvqGQAACXxSURBVHhe7Z1PaCXHncfLYQ+bNUnWh0SMSDSbgC4xBDEz2cjMHhZ0mngwiFwcgU46CGRyeCY88MnMySBCdAjWQTAngTwXI3Dk6CTwIYPlZGzEQnwReBl5kZjk4E3Am9y89av6VXdX16/6z+vq92fm+4G2R09P/apfd3/r96uq/n2fu7y8/Or9999XL7/8suqbcX0OAAB0hfTqub29va80/BIAAACHiSB/+9vfqg8++IBfAgCAZ5t33nnH/P9r5r8AAAACIJAAABABAgkAABEgkAAAEAECCQAAESCQAAAQAct8wEjcfv1AvXZL/+PR22rt1w/tiwXKv89+vnxPvfHLB+qxeVfO9Vd/pd56ZT77/Xfd+8tcPlLvHb6rHjws70Hv4/ar6mert9Steb0fx+WlevToUL374GHwmQDEwDIfMFb+RwuVYf6Weum6/WfOdfXSLStql48+rBYy/fevvPaWev02/8zcfl0L7Guv+OJI6J9vvfKaeutXr+pPAaAdEEgwFh5/+EhZidSCVVbI6y9pYaN/6Gjvw5I8UkS5tqbWaHvjbfWIX761WhC826/raJOFUUes2fvX3lBvP3LC/Ir6xauQSNAOCCQYD48/VJlW3XrJi+auv3RLy6ZGp89lffR4/FB95BQy47p6VafVBhJTnc7nu3isHv76l1ok7U/zr/xMlQJPACqBQIIx8Vg9OHRK5afZ3+W0uDa9vn5b/cSNS15+bt+bRZ/xv8/Sey3D30MQCVoAgQTj4+FHnCIX02wnekJ6TejU+K2DA3VA21uvKftWGymWufxcltfHnzuBBKAdEEgwRvIUOUuzb/+ERa8mvXZocXxbmAUHoA8gkGCsPMwUcl59V//vtsuZXcpcxk3SvPGeneTREeVr5SlsZj6SP1//HufgALQEAgnGS5Zm31I/uX1bOe169FGYMns8fqB+8x6nyrdWVTYh/fhznh0vRKUe+RKixlEqAAwEEoyZPM2+tbrKEyyPVJ0+Eo8fHGZjmK/8zEWRD9W7TjhpKY+OLnORvK5uv/4LRevPiUeHSM1BOyCQoBu3XrMTKG5rsCC7mGZbffxIy1wTCst8ClHk4we/UZlG6vZkkzoHb2XrIy8fva2EeR0AKoFAgvGTpdmW2vS6wMN3eSzSmwl/rB788g319nuP6MlCj0t6NPHtN9QvoY5gBPAsNgAAlMCz2AAAUAMEEgAAIkAgAQAgAgQSAAAiZJM0m5ub/BIAAADia0dHR/xPAAAARbII8hvf+Aa/1B9UxJQW8AIAwLRDeoUxSAAAiACBBACACBBIAACIAIEEAIAIEEgAAIgAgcx4oo7fXFNrbx7rf4HZx57PN4/7Opt8vdw/45/B00h8mc8Ln6qf/+DP/EPO367+Xb1/+S/8k8a870v1p09/rP7r7/yaZuEHH6jbLzzvvS4v86ELbaD21brauXdHzfGr6uy+Wts+4R+KrKjhwYZa4p9aYfZ5odZ37qk72Qc5Iu2YFNnxL4btfXKs3hzsK/0LdY9/8eT4TWVfEo5NeH/x+10ZHqiN2BfKf3uu/7kYfB69WiZvb+w94efVfPeFNjiKbRERzzV/TnFHK0N1IB78mbq/tq2KV2DQ7srrCcw6DZb5kMD9p3rnY94++4765rU/aEH8C/9e5lvzf9TiqNTnn/miOQp0UWbFWPU2XDlR27rh6SODOXXnnv6MaRBHzZOrC/7Xudo/6jdKOTmMR81nR74w+ZAY+ufn4KAsFv57dtYX1cn2mmoaeJHIrmlxXPCugx21fDqovAbOPtbStrLqteXsvhbHBS2Ibj/DFX3w22EUSIKsxfFCi7B7r9jupZu6uz5Xp58g53haaZdif/FD9fAL/f8X/qIW7CshOqL86bUvTaT5e3pvYpY27MV6vj9ofJPNLotqZWWRFEz1kylq8VrXInF+quR7/EwZnVlf1+9Mw9ydVS0q+pA+bnDytFDt6nAvjDhtZxaPIG27F+ev8c8Wuna8aHFpQ3e4+v8nH+u/yDGdwuK62irsf+7OltKXXakzWVI3zdf3SbSDAbNN6zHIv/7jef3fL9W/ft3+7PH1x+plSsu/eNFPwxMjX6xd4TElHoM8u6//vXbfu3EMlFbpCNaJs4lw6H0m6qC/KUW3hdfdFgg771Maz5q/S4LSYxR5w0ZB0v6fHB/qFHNF3bzBL4wZG73qz5cy4CrOPtbtXlTLN+pzgWvzZelncV2+Ucok5tSNZf3eUmdi/j7awYBZp7VAfuufv9T/fV79b5A6/5/60ff/W33z799Xv/vs2/xaX8ypaxTCnl+qK/tCcpYoNNC3WTnQMalbcNPqtH9wqpY5lfTG+Xjsr5jWtUkxKUq5a3uDnqJIGwWVoyjqMD451cn1ys3RxnsjnN2ncT0dud6t26sVqlE+3w5PLKhr9fqori5LAwhPrpT5a+GP5+xFpy4LF530Gnh6aCWQbmzxb1f/Zi6inC/Viz/8g3rx699RDz+9rv7Kr/aJ7fkv1FVfPffSXRulegrJ0cX63eCmXVzfKo296Yj0UL95ZeingpzWedGvfs2IpzhZQBFzv1Hk0l1KoUudwdmR2j+vEzLdpoEfHYfjgv57ti/W1U4wThmnnCY3IRC9GDq6p1Pknc+rS93iFlybN8MPF71diGCS1AgkCd8H6uc37fZTfa3SpE2YPj+v/vTZ99Xf1J/V7ZoJnNmBU6piZGWiCyl1E1578omiAEy6wdunZS6K3O5n3HXuhjKHWhBtEykvLqvqLDWcpAnHBfP30NixOt9XPc85WRbnVbW06g5s16bwq03VGjxz1AhkaRb744pZ6X9cV7+/el6pF/6k/kNHmX1jo4RmadSozN1Y1rd3Hlk9+eRUndeKhk88VWtHNrmRdNzVUR5fi43DdSMbO94WxnYjnPeUu5oZbYqQd0pLxjgiBIBoPQZZxV8vf2xmub/3gz+qH0mTOMl4oswwU+LxsQCOrGz6ZMfk2oqGlHrlS3jasKQ2KDenCOwTfqlAE9GVxNrh0nhasuImZ9JHVnPqzqo8thtyTdlRlKvROoSK8WmaWKMloCvDeKofP2+LaoSsH8woSQWSuPjsRfW5Sc0/jS8F6siT412z2Hel9fRmW2xkZZZxmJS52cyogcVVioBM9NsyEjW4cdHTU36hgIl85DV5JvKtvbF5ycr+rtrtYXImw6wd1MdQq5AspiOk5OHMdI5bvE4LzcUhX3fegqU7PGlVPm88ZlnV+YDZJblAKvVt9fvPvqP/3894ZO0FnhiTZuvU8+iobXrtxjD9ccMselktPTVEkxi1A4xONM7NTekxd0dZPSmtD+W1hOEkUoidudf7rp2c6UJs1lzATWgJs/60DCu2UNxG08IEnv6e3bUTX0OZC/NuYf+2U9bfy5b/IAGiyqebHgRS88UP1e8SjUfSzeFmQGkbnC6rHXEyoCnhzGvl89cmojhXJyf6xmqZXs/duZct68nab1b9VDzaVwdHkRJmIXTp89xTKI2+L7fvxh2B8F3qrU7n3RKqwwbrlsRj0tvhfIXIidE0ryrQUCdS3JfZio2mVQX6M4vvs+ctTMlHzgbATADLBfAUws9c9/5cvX1emx5JHL3DBtMK6VU/ESQAE8WlyT0/4dLiiR0wmzwFAkm9eCldErb0xS3AVGOGC/osJOEeBPALYoCnC6TYAAAgQHqFFBsAACI8t7e395VGbW5u8ksAAAAIpNgAACCAFBsAACqAQAIAQAQIJAAARIBAAgBABAgkAABEgECOHXpOeK26QAaYYuz56+/JLL4+ais7gXEwVQJpnQSfgovDlC97syeTrXRYR8aKdrIjoyQGdefK7pvfU9iip1Zwf/Q+t+o75b+N7TtpW9mrx3/+mkXN+/tY1fTw0Vj/c/g58t5M2kAbpkggucz/ItVQbFArsIqpFih9A9w7UAe9VplphrWUiD+v7ArthsUYmp4r37NGNN/XGIHismzuvQcHO2r5dJAgUkvbVuPVU3r+muwbTpcLzpUHQ7WiTtR2WSSNkNvqP5WfY4oK9/kcOWjK9AikqYyyola3fB8Y0CPR6tlEpII2MeK5ynx1in/ABX1XtDj6NTJtR9K5jFjKtjqxLVXHpZqVfjvZZK1UtNf4fC+uq63Ce2WPd67uLp4XME6mRCBdZZSbaolvWqkkv2zmb1MWG2lwqkMlu4vFXIvds5DKiRENfU7hvenGnLiNPAYpH5OGq4y7ttW2qcFxuX3m34cz6xJsDZwrY1AkuNm5aooRDS1F/bhnpG1rt/JmMSO0smGapb3zJeiD6RBIvhmtx4yzKhhlDIbTV6rTX0yZXGhCAtHYyF+nSINTtcz76KsgqquuXb5vTSoXCEekTa2Oy0eOlOiURNLrDufq7P62EZjczsGKhhEw+0JakrZV787YKzRw0tTnw1o7FGwujGVwlcvluSraF0mvgfEzFQJpb8ZcDOrGxkbDRRMNjPyZJj4unXFGXJ5AcbRRNLRnwja1OC6yEiDx9HJZySMmnl63O1e+JcP2xbraOQhtCyTvcBnZ4oE6B93agNRttVbDEpwVuPboDCbwvWFzr8aw/azkrgjGxxQIpLsZC0bvc9eMI2LSMRiXMgo3o5zOjKtStItsCgJlog3p8+MRXfPjCgmiWLdPIb1ud67yKJ4mI8RUvhX+REq27azr35Tpqa3F/WVw5pK1aagWjJ/N9K9kANVMXiDFm5Gjmh7GYFIZ+afERja5QJnIp6URVKfjKlmxusgr8MXucK6yyYjtcLxVssbtTE9tbcaS2jAz2ToqdSrLESGYLSYukPZmpA7bd5oz8yz6N6mXOqQz8k8ITyDYttnIJ4zequl2XMU0myMvYVyw27ni9X3FSFXHYsbC+uJKiOi6kb6tzPmlaibn8rHFzxOsY6eRCQukS4NovKeYotC2Y3rxYjokGsLz4HctbklLSiP/ZNg02xyriXxapPeJjitLs49t5GUnNoq0O1cipUg1E6LOqXeZPtoauf6iXCkzZLlwzXZ07jwFn+vaWjpPPGYpZQZgfExWIM1TCfpmLJroZ/DYXOHmcalo5qdMS1ukAXrRF9mN9TUw8p8A5th06nd01Da9bnFcwTKfAk4Q9iPLblqeKxlhQshNJkmLsu+PuLyqp7baIQt/baP+MLPMzG87TdqUZ8HzzmC3cExPjnfNkznrW35bEVVOBxMVSHkpS44VRLpG+eqbu6O2dPefpU2DS7XKEYFH+X189fZi5B9FmHGtev7aRBjn6uSkfXqd5rhYEAghvW59riK4SDXr5DS00LrcftoO50fzm+6trWLHu6Q2grazJ3d5xp5WEej3FtN+e57Cmf3JZzWAgOUCAI2hyJDFr9dHRSkqtY8kjtJBgDSQXk1+FhuAmcGlyelXV3h0emIHpAQC2ZiwCou0pXskEUwlZmF/+tUVOW7hv18QA0wGpNgAACBAeoUIEgAAIjy3t7f3lUZtbm7ySwAAAAik2AAAIIAUGwAAKoBAAgBABAgkAABEgEACAEAECCQAAESYHYHkSjRSIZp2cHn8iRj3T/KzQXfs+evvaSm+Prpf5CARE1zmYx/Ip7orcVbU8GBDLZkLx3oPd3943+6rt4IDJOTbF2KFlt4/uwVUDi1WScbApeT0G4LvnMqQmcKzK8OSv43F7jsoQidYuzJC2TrP06XqO+W/JU9tad9J2yq1w7wmXcXu2i0SXvPB51ReP2CcTHiZD5WlLxQyHdpaW3TBZK/xBWZq5mlRyfyE6SKaSb+POetdMmFxJGzJr/gzxbYit1QwIa0RPwkUmW6RwOXnfUctnw4SRGpp22rKqInPSPt/b7eSOBpbXluhp/JzTF3OPp/1Bm2YiRTb1DucAlF5qohWuCYiVa6JlEb8WjR2dfQWRmu2I+mcLaRsqxPbESvYGv/vxUInr8m8bzxHTVuXs7biORgLMyCQPC5jxu343yalKRSk5S5YNuG3VXhqoxHTw/P+eEs/FFQ8llh7NSZCzj/fRFn0vkIbveNp0nbeZz6+VVFZu8LVMKURvxENLUWxwrbdSNvWbiXIWFyD79OdA798WlM3StA/MzaLzSmqSccLaY00+NQGEg8eb8tSJK4SnV4kcwK7VUauiH2itgenapmP2RufG7HtcqRE+hhJr1k40xjxW9GQqpcnIWlb9e6MBcKCGskihn2T4s6T56poKSS9BibDjAlkH7hIo4HxfmpMbcGyQHG0sX43EI7F9a3S+FeLtlO5fxJPrzMRPGL0X8TSayucuXBXj2PWG/ETzVNWwcKCttLkjiN1W40FQpRy20rj42zA1Ri2iJUcEMF4gUC6dLKD8f7ouMimIFAm2pBSuXhE16XtQRRbkV5b4UxsxN8YaSJEbzvrRkx8emprcX8O1/EUtuGKFcw+sw8wHiCQTCfj/Q7YyCYXKBP5tDRr6tT2kr2pi7xWy6GeKJwcgdYIcZURv2RX25me2tqUpY2hP3TBESGYPSCQTDfj/Q7wBIL9fBv5hNFbNd3aXkyzOfISxgWtcFJwlcqIXzbWT0H6tjLnl6qZnMvHFj9PsHedVp4qgRSN3XmAPIpb7tLReH90bJptUj8T+bSYKU3U9izNPraRl53YKOJSVhqb89PJ0Y34WYg6p95l+mhr5NqKcqXMkOXCNdvRufMUfK5ra+k88ZillBmA8TKbAin6E9N1aNPVzMeYlr9EBvFz3DhgA+P9njDt1qnf0VHb9LpF24NlPgWcIOxHlt30ZMSfTSZJi7Lvj/hIX09ttUMWF8oPAu2yLb/t9BrNgq+oYTYhlncGu4VjMg9A6A5xfctvK6LK6WE2BXLujtrSoUCWQrkrtPz64FKtctRQRRrj/SLCjGvV89cmwjhXJyft0+s0bWdBIIT0ujcjfs3Sho7sSu2n7XB+tMdKe2ur2Clb4fPbzo+Slp+kockcfZzFtN+ep3BmfzyZC2gCLBcAaARFhuN4jt4+r02PJHZ+kgh0gvQKkzQANMKlyT0/4dLpiR2QGghkI+zjii41im39lcECU4FZ2F83C94Ft/BfKogBJgFSbAAAECC9QgQJAAARntvb2/tKozY3N/klAAAABFJsAAAQQIoNAAAVQCABACACBBIAACJAIAEAIAIEEgAAIsywQJbNuGxllafLlP9pPKZnCXv++nvCiq8PqUITSMLEBdI69uWP6+XbLPpej4ApQzb9x2rPU0U72VlREgPr3qi3yI0cuwai973g4uh9btV3yn8b23fStprSa+XnqlnUin8fPdDwEVf/rfx8eEMzMtCeKYkgJb+RsAxUNfpiKZvyz4j4xBGOaULYMmHx55BtFW+pyEJa834jUIN9tTDM30uFcJdPBwkitbRtNaXXSs9Vn90fqP2FYd52WxAzFEkj5LaqT+XnmFqefT4f/myDMUjQjGhVbCJSGZtIad6vRWN3/1ytaHH0a13ajqRzebCUbXViW6p6a+pfFhvPRYPLgmw8wxfX1VbhmDK/HM9p09byrK2SDkZidgTSVcQ2mxQVFsfr+N/GhKRQvLbY9QppmhitVBj2Z+mY8Ls0FI/JfZ5gJsXfjWt/XbubHHv2fWe/qKjGXeGEmNK834iGlqJYMdxupG1rm7JloZ0Di2vwfbpz4Jdc699989llNgSSblYtdhQ5mHRjZ1mdDqisfQxOTU3XXEiHXM9N+7PlnLP0xVW1DoRCf4pk2E9iRVWvi39P1aLDv09HYNHKyFW05Xa3O3YfOVIifYyk1yycacz7rWhIFc+TkLStenfGNmFBNbGVCTy32Ucp7lZ5roo2RNJrIA1TIpChRUEe8biefZinVXN31D3RD7kJ+f68lMz5o3jpiyU07Lepkv/3odFTckw9wvJncLSxfjcQjrDdLY6dLAJIPL1cVvCV0X8RS6+dhawT7upxTP8akMz7CckDXEawvaBNdw4lOTKkbmsgejF0NE+nxDt/bNrVGLaVlVwTQTemdpImv4GtQ1xwY7ARfGtcOijcaHKq0rS6M1t99oqLbAoCZaINqY3xiK75sYcEUWxFem2FM7F5f2PCa8psYsfaU1uL+xPRHdauHTYIfMjBVDD9KXadbeuIdDLbN+iL21uuMTBuen1jI5tcoEzk09LgqdOxlyJlF3kFN7gonByB1ghxlXm/ZHHbmZ7aWoeZ0SZXw52SwRdHhGDyTL9Ajhop1tDNbJ/E0bnXueik3j0xCTyBYNtvI58wequm27EX02yOvIRxQSucFFylMu+XzfhTkL6tzPmlzn9kaCLNWPMO48vZ4ucJlrDjYgYmaeyNEUQOo0aWbrlKF7P9aFo5DmyabVI/046mQwCaFMeuydLsY/s92ImNIi5lLXYgfkdSuywlGNNlIeqcepfpo608ZBGBxHGg043F9R3Zmtedp+BzXVtL54nHLKXMAHRjBgTSjbsVzPFpmUpksN0j4mUc7E+T9eii4XwJNz5VEBqbLvEPPWPSbJ36HR21Ta9bHHuwzKeAE4T9yLKbnsz7s8kkaVH2/RGXWfXUVjtkcaGCIFB/r04cvYkyj7wz2C0c05PjXZuSb/ltRVTZH1MikPKMo7sJyBzfPUVgfje4VKtNUtq5O2pLvylLnXiH3c32l9QGDfbTExD897Tkh27e0RCOv+r5axNhnKuTk/bpdfdjJ1gQCCG97s28X2MWWpfaTxt9/3HBidNbW8XOmVcRaMrpvNmKqk+rCPRxFt9nz1OYkreJ/kE7YLkAQC8Uxql7fVSUnte2jySO0kGAOKRXM5BiAzCLuDS55ydcWjyxA9oDgeyFsAqLtKV/NBFMFWZhf90seBc4ZS8VxADpQIoNAAACpFeIIAEAIMJze3t7X2nU5uYmvwQAAIBAig0AAAJIsQEAoAIIJAAARIBAAgBABAgkAABEgEACAECE2RVIZzz1TJjqc3HeZ+JYn0bs+evvySm+PqTKS6ATUyWQZZdAs4micKbum9ImQ7WuUtcHnBCmvNj0e3hbx8SKdnLHJYlBdn4jN7Ldd+Hc8xa97wV3Ru9zq75T/tvYvpO21ZRUKz8vzaJW/PvogYaPrvpv5ee+G5qMgeZMh0By7UFrfuQXLR0u7KtB6cIxLnLGeGrJXBijlLufLfQNQC6NvVaFaUa1mZW+7U11bql4QlpTfiNQupNccE6XZttRy6eDBJFa2raakmql56VN/dCFYd52qpVH5fPCA9VCbqv1VH6OqdHZ53PfzyaTF0i6AGzteVEAAqN1jfeacd8reXqA/ohWuyYiFa+JlKb8+prZ3T/Xl0y5hqXtSDqX/UrZVie2pWq2wXXNxYDLgmy8wBfX1VbhmDIfHM+B09borK1+DloxcYF0ZvDD5tVa9R9xtWu3lXpdE12Y1NxPTcTIosm+uprwd8Yfg7TpnxA187G4z0/Sdvf9ZL+oqLJd4XBoq86kMeV310ysyG030ra1TTmy0KaBxTX4Pt058EupNXWmBM2ZsEDaC0CqSh2FblgdcVL0YFIOruwdiJ++gQdrH6ubhbSEqjN7AtB0X/oST23C34XAepWRq2Onb7scKZE+RtJrFs40pvwjXDNtSNpWvTtjh7CgmtjFBF7a7LsUd6E8V0V7Iek10I3JCiRfAH76IdRSzO5Y17sP89Qqs1U4KkVUND6Up97ups6d4trsS++tiwl/akydwbJAcbRRNKBnOrXdDGFo8fQifMEvRv9FLL121rBOuKvHMetN+QnJ21tGtvOgzqEkR4bUbQ1EL4aO5umUeOePzbgaw3axkhsiGI3pmKTxWFIbLqI5GBpRy/B69xzZIKnca5fcEVvtKx4VdTHhHx0X2RQEynQ2UirXT9uDKNbtU0ivrXAmNuVvjD+Rkm2ULfA7cnpqa3F/IrrD2rXDBoG/OJgokxVIwR2wCZQGetEATfKMSNd9dTLh74CNbHKBMpFPS+OmTm0vWZ26yCu4wUXh5Ai0RoirTPnbXjON6KmtdVhHTD/jMXBECCbHhCNIKVWrJxsz9La4AXsVXffVzYS/AzyBYD/fRj5h9FZNt7YXzx1HXsK4oBVOCq5SmfLbTEA3XojoupG+rcz5pYrJOU2k0f5XhvFrLn6eYPXaNxNPsSVrzygccSYZY+m6L7fcRYhkxmPDadNsk/qZyKfZTKkhUduzNPvYRl7l4Qp9G3PKmtKUn4Woc+pdpo+28pBFBBJH55EtLuJw5yn4XNfW0nniMUspMwCjMfkxyKWNbIY5XCRrJ3FyltRdfm8wG936Mbyu+3LjgA1M+HvCpNk69Ts6aptet2g7fR8USZXPDeEEYT+y7KYnU/5sMkmYcaclUOJyrjp6aqs8pq3R36sTx/i6zbwz2C0c05PjXZuSb/ltRVSZnqmYpDFm9tRLX+RG/GZzy1AK3atkfL92OD+S93DXfaUx4S8izLhWibWJMM7VyUn79DpN21kQCCG97s2UX2MWWpfPnd4O50fzh+6trWYcsZye8yoCTTmdN1tR9WkVgT7O4vvseQpT8vFkLs8WsFwAoFe0GL45UPtKp+69PipKy+PsI4mjdBAghPRqKiJIAJ5eXJrc8xMuLZ7YAc2BQPaKsOhd2EYaMwOzg1nYXzcL3gW38N8viAG6gxQbAAAESK8QQQIAQITn9vb2vtKozc1NfgkAAACBFBsAAASQYgMAQAUQSAAAiACBBACACBBIAACIAIEEAIAIMyaQ9Fzr2giVe8ZN2M7MQIt/lin/Xd3PMewTPGme0Em5rzbMyrkGMvb89Xfd8PUhVZlKyOQF0pXTCrb2lZnBjGHOfcTYf4qwnVtFO9kdUhID60Cpt8iNbPddvO7tFr3vBSdK73OrvlP+29i+k7bVlI+LPRvO4hb728Lv862sB/yMe0NDtVGZmgiyXNl7uHKitvUX4190+kuZEgP9akZtZ93fzcrxp2B6jrXauEvfzqYSuSQGbKS2SLU3q6rm+745VB+VyriVxcMI1GBfLXj3yo5aPh0kiNTSttWUj5OeDTcCThYT/LMAWVCcLhfcNo03FelBSSRNPdI+n3Gf4hSb6v25QrqRDg2A8RCt7E1EqnsTpsLOilrd8v2D6hBtdXX0t6tVhQIJv16n7Ug6lzhL2VYntuXKvRTBbp+YIsFU4zIG3fv+8dji1mHhYVuPtLbSewemegwyM0LKbEilcalyOO73MqbXNe/3K+uIPa6Qvoi9eO3+pHY6Rv07IvJ7b5gingpmKZT42UzDffnv01vyXsw/Vtt2YdiF2+E+3qaB+n2Fc+kdZ4NznB1b9ouKiuIVbo62ws5NtcQCW1dst4qzo0jV9iSkbWu09NrcHXVPR4Qp61X27SA65ZM0c8pUrI+aHtFNpMP1hWEejg+V2i5f8frCHqwdqnmXGnCFZu/GoZvCVTDP9mUrVgc3kNnfx+omv695pEtpQk072kLt1r1yNkSxs6xOB2Rg70MCQ9W2i8cWtLnhvsL3ravFk+1ux1FDYDPLyJXA9fc8OFXL/D1nN2Sbc1xCjpRIHyPpNQun9elxFhfNxsvO7tN3rlPZu+6gbEQmVW1PQtK26t0Z64ey7XIH9Hmz9hRlf3fdWisQqg+TS2LKBdKZHgmeHoYrZarMF0N5KlEveAZ4rnHsaZKH5q4HbWCkb6BxmNyi0908TQzAqtvRlrzd2SFTLy14PgdpS2Aw1XRf8vu2TCdxFEZ4qTA1FcsCxalc0WyfCW+mFueYriEST+86Erxx9F/E0mtng+uEu3oc07fa2L4g47DQUkHyMZcRrDto052Dbm1A6rYa64dO6HNVzAo5LRcjT7bGTWLkJzD1AlmNtQCtj8LC1MQLzV2aJFyAcghf7h25HbXdWE07WiN0EAQ7NlbD9qkZDfflRRs5UXOqZLjIpiBQxtRNmhyJR3TNz3FIEMW6fQrptRXOef0tM84DXuwM84kPykb0Bd3RsdGfSMk2oePsra3F/bWGJ+iytg/Vgr7HJ7HiYeoF0vZGsXDdfpEmCjNfIPU4wjhVQzoZ6U+CwPWxilKvXJ5JbLUvLRMlsyzq5fvGRja5QJnIp6VJVadzXIq6XeS1Wo5sROHkCLRGiLNx9+3wOq7vgEegp7amZUltmJlsHb126zlaM+UC+USZ4YyasRfjcJf1kMJygCi+8MYN2vtmxPGaRpEiQeLIxlFZr2y9njMa78tSXpZltzAtTApPINjzZCOftm6O3c5xMc3myEu4Nq1wFjttu9k+pG5Ziu70aX1fMVJ10f7Flf7UtKRvKxOdNxiV/r6DKqZaIK3/b5jORaExMwong1QvTP2sRSanAW4ZR0cj/Xpq2tGaSGpfjgajqWCRhvtiIe1rzKcam2ab1M8ck5ReR0h0jrM0+9h+p+G16VLWYmfkNtsp1Y45B+PDLESdU+8yfbSVhyySY4eAdArgX8NXl0bgpcwgBVMrkLRcwxmrC3MuFpqV9Ja88EB8cLHTwHJh/EL/HfWQuUm8G99qYKTfibp2tEVoNy1jKQ/GuzGlgjjQYlwvxW66Lx0v0Zo0cQY8ujwpHSbN1qnf0VHb9LrFOaZjoUjKO0DGCcJ+ZNmNeYIkdk65DbVCJ0wIuckkaVH2/ciSrTp6amu38Wi7DM4/RsqAwtlywkb/i6rx/FVL/on/P3HoxOvrNMf0aveEE1dAXzQ7V1pI1/b5BQ39XfD0xYoa7syrw8GaTjP5ldKCW2Okf42WrxTbYQekk6WN1LYtpXYr2tEWaveO0t9B1m59rLr3v9Ip9an5mVhSGzvr6mKwrdb44KjjGa4M1Lb90dBsX5HvSvzem2BnRQtnkPd1g38oYSLBfbWvP5hmqtt8XppzbAXhhHYgpNfysqMcI/BalSji2liKn3gTqeoPOTy+q5a4cWYo6Wa5/fZcijO8NfTWVjOzfGLS8zvFdgkdbnbfZ9ePvlZ1T1A+RvP7g/D6stH/eqIML+Spt1ywkeiCvtHzZTkAgD4pjHn3+qgoRZvb6mLEDqIO0qsZX+YDAJg+3JjpqMvXGhJ7YichEEiQGP9RytjW51M3YAowC/v7LCTB8w1SQYyEwNUQAAAESK8QQQIAgIhS/w/r8SaFpUFVIgAAAABJRU5ErkJggg==;" vertex="1" parent="1">
          <mxGeometry x="422" y="710" width="328" height="177" as="geometry" />
        </mxCell>
        <mxCell id="rQuMdEPPs-8JV-t17J9N-2" value="" style="shape=image;verticalLabelPosition=bottom;labelBackgroundColor=default;verticalAlign=top;aspect=fixed;imageAspect=0;image=data:image/png,iVBORw0KGgoAAAANSUhEUgAAAYgAAAC1CAYAAABF0GjhAAAAAXNSR0IArs4c6QAAAARnQU1BAACxjwv8YQUAAAAJcEhZcwAADsMAAA7DAcdvqGQAAC7CSURBVHhe7Z1PaBxZnud/XvawvTWe2T5MCyXT8nZDtqHLDELybKvxghfypGlhEHWpFggWdLOZg4oioU5GJy+itnRoStAHnwRqXwqBUY9PgjG0u7NnbCEWV0N1Qi12LRKaOfR2m9qZW+37vT8R71/8zYhUpvz9QNjKyIgXL168fL9/L97vyunp6TdPnjyh5eVlGje//vWv6Qc/+IH+BAAAYFL4/e9/T1JA/PKXv6Sf/OQnevf4uPU//7v+CwAAwKRx5ec///k3+u+x8z9+/5n+CwAAwKRxRWxSQPz0pz/l/wAAALzl/OIXv5D//zv5LwAAAOABAQEAACAKBAQAAIAoEBAAAACiQEAAAACIAgEBAAAgCqa5gtrc+mCf7t3UHzyef7pGnzwjuvb+x/TgTkfvPRX7P5T7A669Tx8/uEPJkY8/og8fvZJ/x69zSqfPD+hnojB1VE59Tp/T44PP6NEzc2S5uotK0a3336PVOzfTeomyDn72CT17dYs+2L9HGUVontOna5+QOFBd6/mntKZvvol2MVy79T69t3qTbnbMUYJTUaZon88epe0DQFkwzRWMyDX6rjUeZfFX9qAlhrmbq++LM0NuvZcOgkyn81f6ryw61Ll5jx58HC/PoXOT7tx7QB/c0p9L1v3WBw/oniUcmI4o6957SUG1aapdbn0gBM29O65wYMTnm3dKtg8AGUBAgNFhzXhtzdkCbVhotKf8vxhgfxyMWLfoR1IVF8fIgzJIrvMRffpc7+vcoWC8Pn1MH5m6fPSp0OMV0UE4q+5CcxdKuYS1dvWduO7j5+o+6Bl9Yp2T1McpT1gaencmo7TLrQ+EZaIFg7hucs+yffQJon3+7n2ICFAPCAgwHk4P6EAOoh26443o195fVa6a5+KYPAGR8IqeffZYD9SixO/mDICvntFvzeBdk9OvjJNGXPfRJ/Rh1BdUk9rtco3eTyUYfSTqlLqSRD0/+TARWp077wlRA0B1ICDA2HhmRuqbP7IGrGv0Y60FP/9tgwOv4ZrRwgWnX5X3x7/6KhFAN+99TB+8f6s1V02tdrn2YzLGw+nz30Tv6/8kZkeH8mQoAFlAQIDRuXmP9vf30y119rs8+61299ykH5lDkoHuOZWXD9cs3/wpPf+NNzx27tADU5cHOpCsteyAzLo/o89SP5by54vvPxbfNz7WjtguqYXj8uqrUuYYAJlAQIAxkrp7TDwgGeif/7bYX58M5g+SGUg8k8mb1BMihMOnHz4qbz1oXj37RMYwHht/vqB0YLwSI7YLAC0BAQFGxw/05vjoE3eKDMqmQdjHn1UcBk95auhH8XiACVJ/pOMUwqK4l2XVFNX91TN69MmHoqyPhKDQ+2KB8REZpV2yYjDXykzVAiAHCAgwXhJ3SofuJO6f5+R7iaLYg/mH/N5AwUmvHtHPHmvt/+YqjTSZ59UrISjSGVG5gfE6VG0XK0bSufnjiEWTxjBKty8AHhAQYMw8o8/MoK3JCrI2watHB+nAW0Xtv/UBffzxB3TLGnmv3fqRGrgFWX7/+lRtF+t4nsrqxEauier/HZn38J4fVHevAcBAQIDR8QO9Ysvy6DCvfmPeJWAiQeZGsaa5xqyIjLqze0a+FPcg3f/ABD6EJZPjRatN1XZ59ehnlMgIjo0k98AxGiUdTluqK3g7gIAANXlFtSfJvPoNJXHfMkHmEUnfmejQTfk2WnHdefCVL8XZx3Hc4/Gn8dlQTVC5XV7Row/1y3ve/fCSII+zYjQAlARrMQEAAHDAWkwAAABygYAAAAAQBQICAABAFAgIAAAAUZIgNQAAAGADCwIAAECUK98Irly5Il+wGTe8ZMJFXBcAAEA+PD7DggAAABAFAgIAAEAUCAgAAABRICAAAABEgYAAAAAQBQLireWcntxfo7X7T8RfYLpRz/L+k7aepO4rD0/0Z/C2kD3N9du/o59+/5/1h5Q/nf0X+uXpf9SfBPK4r+nz3/0N/a9/1fsEc9//B7r17XeC/Tbxaa7cGTdpj9ZpZ2uZZvReOnlIa9tH+oNNj/r7GzSvP1Xh/Ml92twb6k82XVrf2aLl5OKXkYx2vgiSZxtp9/MndH9zj8QXtKW/UM+Nd0WeUeR4u+/0+vu0kdVZ9LncI7rB9fL7SdYx4fUK2t2qg8GuSxR5f6/d9qj0ezmhh2vbZB8d1Dt2DXCpKTHNlQf4/0a/eKG3L79Dfz77j0Ig/Iv+Ps5fdP5JCAeir77MFg514Y6rkqKord87om1xI/W1J/6Ru2Xu71+yHwH/uNfuk9tEM7S8Je71ooWD4Pzstf5rSHuH7WqpRwfZFtPJoTswu5TpJ+4xO+tdOtpeo7KKNwuZNSEc5pw+vkNLg83c/n3yQgztvdVIn43V2RMOLJCEcHgthJA5Jlrv+UUhWoY0OG7LSgGTSDUX0x9+SM/+IP7/9r/QnNoTIiyKv539Wloav+JjW2Z+Q3Xo4d5m6R8imES61Ot1eQT3BFlTiMFyvSdk0IDiY9wJyXF2fV0c2Qwzy6tiUBW39KJExxQD9a6wQEKLQwnybAtC1bvbmdWfqyGFYned7lrlzyzfJfGT8oTpPC3K5jvOFLDg8lE5BvHHf3tH/Ps1/advqc8O33pFP2G31B/edd1QLRPv0M1w8lD76aWmpRPmi80II/m93udreVIjlD5+NuELjlt7SCfWNZxjpAWQnh/6grWPODlGlGXvl64GoZ1v6u/l+fo7KwYxyr1KvPPscxPMvQRfEHVWeEBt0YpYUFpwrPzzJwd0JL5dXNA7xoyyXsT1Xd9PMScvRL27tLRQxw7UwmVpwbMiZ2hhSfygPGE62wn3gctNZQHxF//ha/HvO/R/A9fR/6O//t7/pj//1+/R33/5l3rfuJihWTZphqd0pnY0y3CPNjdPaVWb4H2hSbEJzgPdi0VtuoudUSuGz107oI4x9fVx4QB7RNubA1rSx/n+88S1tiM03KNt63zt057rq+/lNYi2ZUW0G4krbLsbMp3wgrr3yvXUvv+0Hr1KLhbWUleUpG/JilBasFDptQA1nNPxYCjMh0XPNz8aJw/Zry/afaWoVDVQ17m+cs/N0Wwd+XB+RvLsyMkz6gdFp9YPKrYPXG4qCQgTW/jT2X+WHSvla3r3h/9I737rO/Tsd9foj3rvOJHajajVWeWBxdKs9RYO3m5gb16OMmLIFYNhMtZKHy2PPeFo2Otbvur5DTnoxkz17vpdz48sBv8D9nv00+vMLNNd6VI71IPcGZ2Ksc1xMYhr5AqBXOrca1pPxxWi79Wx7LhuLDwy6qfcMu1ZEfMr7EI6IucxnRzS3rBoIC/TT9xjtl+v006FeFYdN9EZP/xM/Dp7caizU3FEBWY70v32uvqPDEwpBQKCB/5/oJ8uqu1vRf/loHXoPnqHPv/ye/Qn+me6VRDAnjzCQF7ujBFG/1BczWuWpIwKCN0GcVM94iY4Pyal2LoFKE3OCEN13bhV0gBl7lXXMzbAVXdLGCtiu4LlUYGZBWLviS20ZJC3u0T5Xpoy/SQ9huNibI21HHNXdDviiXgYQWxt/Z4SGK20K7iUFAgIbxbTi5xZSf92jX519g7Rtz+n/yqsjHGjNKmapvaEY1w8yeZMX1RuJGmVCCGhjjExiPGS7aqoRhLcbSGmxO3l+tez/PCjkcTFtss/i2HLvpv5jb5r+WnhD0AWlWMQefzx9G/kLKfvfv+f6K9jQezWOCfpim3Yh9wu5YWZP7VXba7rgmdzyf0co+B4xgUIiZjrIZ3CWoV52lASjw6P9S6LMkInJqwMxo3FUzZNcHq1rB+oNEJwr8rh2HVnRdEW2euzegKxdOwtfp3s59almpOjwCWhUQHBvP7yXfpKuqZ+lz0VtmHOn+wSv6Pku2ImgzAuIq2dmFvAZ2ZWtmEln+/MMm3x4ForHlMT7baJacDqXovcNxHmV5QGPhjoHRZS843PyT8/HohvigY2PWVzb5d2WwhOJ+TEpVy0MKnhklKxt7KoeJWQnspaMs8tiIfpoL3/3HTMIk/4gstF4wKC6C/pV19+R/w/nniEeYPVCaJOFOz3tYKDJw+JPUS91TIvqCl/fHTGkJmeav8t0QFj+8edM6A2g3bbeHEDfjbBvXJ92Q1W6Ag3g+ZQDkoOQgiq8dRrF/0uQRjsD1HBd1F2YXB6FLJmTUUwAf3IrC+eXpwVX3LjUQY1hdkth/fxrKoe9dMZD4lg2rXKVwqXaJe7bh+FVfH20YKAEPzhh/T3LcUjfH/85mCJdvZLBJYzCWen8FY4fpVG/CB3lmhgrqGnrJYVZjPLW8l00aR+B510mQYxsOwsDWjTfLcWWcYhmfmkYxTN3VxCrJ5q1mv5ew3QVkQM6VLz20W/hVyqL5iyS1s39fqJEkRHdFBiAkH0nsR20MlZaiMq/NXA75aj+4X/JjUHs8U10/iVeW7h7Kva1iCYWpBytEWUdTNXe60oAIphy2Aca2qp9Zp4SY76yhiYJnh8bseCAACMCeMmavkN55He2AbTyiUUEO6yFllbK+8MAHARSHdZmzEm8yJkbEFAcJmBiwkAAEAAj89wMQEAAIhy5eXLl9/cuHFDfwQAAAAUcDEBAAAIgIsJAABAJhAQAAAAokBAAAAAiAIBAQAAIAoEBAAAgCgQEJmoFTHdlVLB9KCeX3tvzOv+0cLChwBMCtnTXDuLtLIQW9f3jI4PX9Ap/ymP+TMaPn1KX7yRX0o6iyu0MPsm2O8Tn+aasfgYLxPtZFIzuDmUKyHLfB1duTKzHhdFcv+c1tKr7/kTuq+W4EwWUlMLBcZX5Ywdb7dv7mqz+lxegpuXWHevFyzMLUjrm3VMeL2CtrfqYLDrIok+W12ufWKvn5EfWy1OZ/e4oJ65/QeA6abUNNez40M6PLQ3LRwyuHr9thAOfF6+cKiLn12t3+PsaW1oijMylef+JAgHQZqZbdhaQn9DXqrPk0N3YHZJczKnmz94usdw7mZelrqsIs5CxizrnV5jh5YGbk5umWfaWzvo5KEQDnNCIJjz+jIBQ2gFsADSK5eaY6P1lAmB2lwDCYCLpVkXk7Aobnev0pvhU3qRJ0UahNfQ5x9vkDzmUtKlXo8T8xykCYgaRQze63krg6r8zb11TmvaDEn+6eK8nHLg5oRAocWhhHlqQeg8015mG5lvwT5RJ+nxE/pIIdhdp7uWdElyTDvCU2emCzKyAXA5aE5AXL1Ot5XpQE/bMB1yiP94R0X7mHUMgrN6rcXyPLObQVgwRjhJDZePk1poZOVYa7/ZAsGmy4z5tzsrKp9ya1bEgtKKY+Wb/M2LC3rHmFHWi7h+zCNkU2Fp6jBlpxYuSwue5aiz5nnCU56fKVABmG4aEhBX6fpCl66+GdLTcZkODjMkMy+WTt5eHZMZzFd0pSsjGLSOaHtzQEvaleL4+bXv33ZzVHGxsNbKaUjbsyKy0mTqPMUN528+ech+fmG5FKb9VAN3mesrd9wclUmdLLOk2ZyfkTw7crJK7zkkO/V2bB8Al4UGBMRV6t6+Td2rZ3T89Asar+2QojTBFhP1myT6joTQ2ub6SjBohXmRhUUi19Tvu8FUk4vYtn44DSQLj2jwlC2mdq2I+RV2IXnC8ORQ5SnOHcjDtJxhbMg9Zvs1p8EsH+T13UYxgkE/C2HNyfTd9vPTiflLI1N+ip7XWscD4OIoFBCzCyu0smJtt68LkWDzhobHQ/HvLC0sdvS+y4hJzG9p1lLbjLkyIvvOj4kV8NgAV91NYayI7XbiLjMLJG/VElrSUirMRxwGqR1hKEmP4dgRJ8xvRc51O6JH5iEE9q5yWa2WlU4AvGUUCohgFlPMSnjzBR0Pxd7ZBbooGaG0xnJuhbrMLCyJ4S3VrM+PBzSsmMQ923VRjSS422jcxeD727P88qORxI62I7GdDIYN+XLkjCa2iHa8KdLaIgAANBikfvPFUzoWv93Zhdt03TUxxsA5Sbdzw/7xAK1ZK3eC8slXHTRjroh0CmsV5mmDfVOsgR/rXRZlhE5MWBmMG4uncJrgdPOats6n7LuzosyS8iKelROIOfEonkjAr3z0+tmurezn1KUSXi4ALgWNCQjm9MWx+FFyTGKRxmlInD/ZlS8/9Qqnt4yK0qzltEbpMqqQxF0Ll5gGLK2fipaIxMRFBgO9w0JqwvE5+tLyKRzo9BTOvV3abSE4nSDfJRD3UCghTHL+YpdUODMpxbysxy/WRUM85jkFU1d1kN5/TjpmkSdsAZhWGhUQQkTQCzYjxhiPKPzBN4x0Mw0HdHhY1b1kYhhu3CDRZle9t8Y5iFsYYDCD5lAOUg4zy6TGU+/9EP0uQRhED1Ezt0TZhcHpUciaNRXBBPQjs754GrIJiCvrKTJhQbSr6SthbMSQCqJdK8CulBDRDnfdFydhVYDLTMMCQnD6gp62GI/gwcHMgOFtc7BEO9FgaFnCmTe56y9JDXNIR0dioKnoXppZ3kqmtSb1l7Nec5a2KEJbETHki2He9cxbyKXay5RdWhBG2lJsRXLOTCE+KDFvN3pPYjvoWIN+1HrSs8gELDTtc+VmV5JnkYlr2Mep5xS6pGpbfwBMAUg5Ci4hes2l1tfRUus18ZIc9RUUACYTHp+btyAAuHCMm6jlN5wrvLENwDRyCS2IcBXOGPl+aDD9KCtisNTWc9ZWCi/+N47gFwBjhsdnuJgAAAAEwMUEAAAgkysvX7785saNG/ojAAAAoICLCQAAQABcTAAAADKBgAAAABAFAgIAAEAUCAgAAABRICAAAABEgYC4cPiN3LX8BQIdqh4PmkW1f5hKtSn08y1cyReA9sme5tpZpJWF2BrGZ3R8+IJO+U95zJ/R8OlT+sJKM9dZXKGF2TfBfp/4NFe9hIG/0Bovgc3rYgf0qL/vZQUriVoqPL5KJy+LfV992e6SHPK+qMI9ZLRPXZJ25exqXjtE2qBym1nPrdfPWbVWn8vLltvLoJjl3EPS+mYdE16voO2sOhiCJVnk/byO379EX4ML6cWW4QiXggnqWXgNANqn1DTXIOWoEQ4ZXL1+WwgHPi9fONSFf0wsVMzW7x3RtriR9jS6NhGDhRg8e/0qAm6GlrfEvTe0SmmazW5Ie60kh07JS496cugOzC4sDNznvr/vD57uMZzvOpY3IgsWMmYp9PQaO7Q02HT6lszN3VvNHLhN3ohubAl2FkB69dfcesokSvFkTwCMk2ZdTMKiuN29Sm+GT+lFnhRpEM4PwD+yIDHOVDBPG2KQuPi13rrU63EyowNqR86KwXs9b3VVlfO6t74ujmyGJGd3cS5TOXBzEqXQ4lDCOLUgdG7uzOxAJ3Qoy7lLS3qPjRSC3XW6a0mXJC+3Izx1Nr8gqx0A46U5AXH1Ot1WpgM9bcN0yCH+I2sD7R8WFova3GT7nNXM38eDxsOIhaOOTTf/e6nRcllS67SP0XXwYxDWcWYLBCa7Lvi7iCTtrKgc1K1ZEQtKK46Vb3JeLy7oHWNGWS/i+kWCumB575OH23QkBEA8+Z4WLkGSKZ1p0BOeMm1qpkAFYDw0JCCu0vWFLl19M6Sn4zIdHGZIZpnMSVQ/Otq3zMs7GxdEn2i7htnCwoEzoKXlqOxlYVFHtL05oCXtOnF84TY88Gvfv11mFRcLa60rSsq2ZEVkpRbVuZ4bznktB2u2XApTpaqBu8z1lTtujqLpp4WAPjgS1/NSkiacn5E8O3KySpE6JDtdeWwfAOOmAQFxlbq3b1P36hkdP/2Cxms7pKhE9ZE8xI1xRjK7pO1e4NSUNfxD7BZzBvucxP3FuaOF4OJUmr2+V6bO32xbVVxfFh4ZdVZumfasiPkVdiEdkXObJ4cq13PuQB6mMg1jTu4x26/XaSeIU2ST7TZKkelFo4hnsCuskJzYhDhZ1LACMm2q6NHtdWgACikUELMLK7SyYm23rwuRYPOGhsdD8e8sLbSRhHpimCVp9QtNPxycRkWVHVIiW9n5MbECHhvgqrspjBWx3U48R+bzdoWWDPoW5nR2A9C8hdZUegzHpMSDolbkXLcjnpaHFHI96l98MAmARikUEMEsppiV8OYLOh6KvbMLdFEyQml3GeZ/I6iAJWvlaTJ7P95QFj+WoadFjkC266IaSXC3lXiO72/P8suPRhKT2i7/fIa1fTlqJlp3fSXfRaUtAgCmicaC1G++eErH4jc2u3Cbrrsmxhg4J+kerujHLjOA+gMvu4ekFruj3CXblYWEjmXwXPxEI96RA9ooxFwR6RTWKszThpKCdHisd1nUaTMb48biKZwmOL1a1g9UGp2T2ndnRdHW2+uzcgLRj3PJwLWtNFgCX1hi/Nm2xrKfU5dKeLkAGCuNCQjm9MWx+PFwTGKRxmlIqLnnLB8qmvhSq4vPNz8/Hohvcn60M8u0xQOpFfdQcRAPHZxMMC6hprRm7baJacDSqip030SYX1Ea+GCgd1iM0mYSPYVzb5d2WwhOJ+TEdVy0MCnhkoo+XxPXcTYt8PlFOfFZep7Mcwqmruogvf+cdMwiT9gC0DaNCgghIugFmxFjjEeYt2j5jdfKLmAxyKuxwZtBpOfFOwFininkTC3VwWHrhz2zsCSGxyM6MDEKnnrqvZkrVHCS81OsAf3k4SguJu228eIG3C78AnNv1XsbnTXcwgCDGTSHbt2ZKm2WwbycziTKLgxOj0LWrKkIJqAfmfXFM85MzElZT3UnQqSCaNeKYZkX6/zZT7AqwCTQsIAQnL6gpy3GI/hHnJrya7Q5WJKumswpoAVIl5EYHZxy9Ru1/qygnaUBbSbX1m4i+41mMXjeFapj4m7YPKXVwH00TxvsntLuB954yqs0Rmoys7wV3IOa9TrCS3jaiohRus2yMGWXtm7CWUy8Fck5JYgsgZ1D9J7Exs8muacc66kUbG2Ia9juKPWcwtlWta0/ABoEKUcBKI0VP2poqZM4ar0mXpKjruIDwKjw+Ny8BQHApcW4iVp+w7ngjW0AxsUltCDC1TJjBKt0AlAKZUUMltrqP9pK4Tf28V4FuEB4fIaLCQAAQABcTAAAADK58vLly29u3LihPwIAAAAKuJgAAAAEwMUEAAAgEwgIAAAAUSAgAAAARIGAAAAAEAUCAgAAQBQICDAi/ObvmrfSLSiHarvqGQp1mxeuygvAaEzeNFdekprXqQ7oUX9/o53cASNilhwP4TSY5fMiTyd6aYjWF7ArwQh9h5f1lqdyDgdniYsyS7eE5WeXZyHr+zrsI5H7CJaGyToXgIaY6Gmuvb5JvqK2fo+zt9XRtgT8Y1q7T3VOLU+YN3m/QtL8qSDajjMyFev+RQsHi+p9R6c+7XJeDT9/xDxtWGXxct2Mew1f+OSVlyLzcfdWo8LBKV8vEe7UXyZEGmHpcQBKMDUuJl6vn5PRB4lqACigsO/I1VN7tHpXJXwqTlNaQKnytBDxMgJJodFdJyePks6f4WYN1Jn5ggx1ADTHVMUgkmT0XkJ9NufZHDJbqmlpX600162kM9YokX1us8jrsJ+es8xZ1zNVsevh14FdWMrHz+6OguM4R7Z1DecYaQGk54c+bN1eyTEm33ZeO+rvrBjEKPcq8c6zz00w9xJ8ESer78j6c2ZATn2q04IWpynNo2R5eUt6+3mvxSfOH+QjU6AOW156HLzVTFmQeoZk1kfrB8SDDWf98s1xNW5o94d0C1guIO0Tzj+3BYZ7tCmzzKnrcbVMBrMXiwV14HPXDqhj7kEfFw6wR7S9OaAlfVzit/ZdFzqrXXo+D/R6mWn+Xl6DaFtWJL8do9S9V66nSrNm1UNlehvtuYR9R6JzhKt85iZ960F9d2TJ8lRK0TnyU07Pr4jnws/QEc4cA+lR32tvlQJ1SJF05AA0wtTNYlKJ49O8wOw+cIJ3pZPVj3ZuSJgWMxy83WCmSonJHgUrn3ZOHXp9K6ah8yjHXAxhXmij1fbT6yTpUQ/1QKS0VMflwSky84RALnXuNa2n+1x0zmhb++e6sfCoUD+/7zDnxwPx5Hokx3OByite37dftjyZUjSGeC5bLLylkOB+ZIR2JMguU6CKO6qXJBuAQqZOQBQzS3IcqMUo54ZBameQi6F/4HOOGplVh3TQMcRdDBG3haPVprhJ+NV141ZJA5S5V11P3y/PtONOOadjdUFRE83MrNDr44K3mIrl2cdZKCEj6HZlmwnzCdOIwYUwdQJCaV62ac4muK25C41L/rrKMMq504efkN+dSqncSNIqEUJCHWPcHOPFFSIKJcxGI+g7RiAtLYi7N6jgby1h1EB57PZUHjahZGxt0ZZ2sUmXHYQEGDNTJiDOSbpuOQCoPydz8BPNfUcGI4sZ5dxJIvRjZ+FP/1SbOxWX3W5yf+LmGL+QiLlMlM9+FPy+I/ZoTT0ViGpTcrO6m6lyeUE85Amxhy1wEc5vyFlYzVtQAOQzVQLi/Mmu1PATV0lUYyvJKOdeCK7vnJEacYabwkG7OSr5qtkXzppr5LqtoWf9uNM5Fepel6huHv+g7wiBodxBtoJgNqUoVHMzVStPxUNG5OxUCqSYxQVAE0yNgDBvKztBTuPftQaUk4cRN5H0f3saXNlzJwYOglsvqZ08lJppb7XMC2rztCJGqOiMIeO2sP+W6ICxPSjH2rFRzKyfbaee/OyDe+X6soZeYmpTtO+cHCqBEW0/XY/hHh2WNZ8qlufGfzRGQO7turOehGWxqwp3LAtlVXUpErIBoBEmVkD4/vLNwZLUzNzA7zxt6Oma5jietioVX5tkxo42/eWgUvLc0oSzmHgbbWqmTY/6O0s0MNcQIya7jMpO4plZ3kqmiyb1O+iky2OwG2NpQJvmO47H+MtnRNuxWWL1ND75svdapu/IF9IigX+Dmn0kyio5o61yeVFha+JAXl8y0369BhjVqgKgCKQcnQKUBjw3sWtRgTpYMbBay5SoNaJeC8FROFsOgBrw+Dx1s5gAuBwIa2GVZyfVDDznvYkNQENAQGTiLmuRtbXyzgB4O5BrLNWJ6ej4kL/QHwANAxcTAACAAB6fYUEAAACIcuXly5ff3LhxQ38EAAAAFHAxAQAACICLCQAAQCYQEAAAAKJAQAAAAIgCAQEAACAKBAQAAIAoEBBTDa/ns4ZsY1MPnmN9VNtVX9FAt3kLC05eJiZvmisv46wyrHi4OY7HxqTVx4E7+SgLvk0OZknuEE7l6iY1unxM0HMcob9zNjx5aq/vrTyrFhaMlZoSlp9dnoWs7+uwj0Tug5d7dxY2zDoXSCZ6mquf/azfU0nca619xB1hzcqlUING6wMyCPN6+xnvpp5oX1TLfO9PkJCv3t9PiFc873a7vKa5l4VwnjassmQKVYF7DV/45JWXIpdZ99ek0sLBKV9ck5epd+o/vyjEUpv5TaafqXExcSpMTrsYJL25ICatPgC0SWF/l6vL9mj1Lue9OKKSaTSyKVWeFiJexiQpNLrrtGJLHLkwInnZClW+8GqZA98upioGMbN8Vz7kowPXV8umKJtDZku1BO1nlKamlYTF6uHZ5xaTVR+lJVrlBteL5HnW5zg/vvMndN8ux/8+Qrx8tTJtcG9+PT0feKm2qVHHusj6cB29a5rr2fX168ouLHV/7iq90eO4/axrOMfkPFuF7nPJMeZZ5PVF/Z3V/qPcq6TMczH3EnwRJ7O/c/3l6rKLNK+z4pVNtBSnZHl5S577+b7FJ86v5CNTvw6R6zuLKQtSz5DM1Gg9fP6hcCY435RUfV6b7tKktdwX2p+Zf24ZwvrIH51t3uqsdeZHPM8qS0QjCjKScTkmk5hVP86WVr5+Ofj1FFt/Lk2JWapt2q5jjOEebW6e0qq+Hj9ak0HuxWJOXRk+d+2AOqYf6OPCAfaItjcHtKSPS/zWBc9WDfSbtDfXV9/LaxBty4rk98Uode+1tecS6e+Mzu+u8n2btLEH9V26JctTKVfnyE/JPb8ings/Q0c4cwykR32vvVXq1yFF0qADwdTNYlLJ3tNcvmz6OoEn6VcU/amEBjPKuQa3Pkbz6Vt5s02azkPVWbWp615Dm8rrK9oPm5bj1m9DDRKBBleVSD0F3B7mc3HbtFHHMG1rOHi7wUwlcLntrHzTOc+x17diGrquMRdDd/2uF/so8Wy1luq4PMQ1coVALnXutcJz4bqx8KhQP//3x5wfD8STS5UblV61vm+/bHky5WoM8Vy2WHhLIcH9yAjtSJBdpn4Vd+QkBweGqRMQxcyS7MO1GOVcgaP5pLgJ6o1GZAXezs/Et5aprMvxfatMIyZxTvnZeG3TSh3DILUzyMXQP/A5R43Meo5hzuh4XSNui1LPVl03bpU0QJl7bbvvBJzTsbqgqIlmZlbo9XypOr79iuXZx1koISPodmWbCfMpcKGCYqZOQCitwTYrhcbk+HyFtiB7RhlGOVcR1of7ol2m2KTfOUVpRKmbSXbmSPJ5dyBQqAGpGWLlp5Rrm7brOGnkP1vlRpJWiRAS6phIvGkMtPVcgv5uBNLSgrh7gwr+1hJGDZTH7lHlYRNKxtYWbWkXm3gotAkhUYkpExDnJN2OHLzSn5P544nWuSNdOMWMcq7Br4/Cnb5nNsu1oQNvyqxVGpP7g1DEzF7ld22GbLO6fNu0XcfxEPqxsyh8tgJ2z8n9iZtj/EKinecS9nejqacCUW1KblZ3M1UuL4iHPCH2sAUuwvkNOQureQvqcjNVAuL8ya7UYhMzP6ptlGSUczVBfbQpnD3wGpSbSZrMsh6eS0MLEHdKnkJqcBFrw6B8xB7ShWVhTPasyFyZthmhjheH6ztnVF3jbgqH0s/Wgn3hrLlGrtsaLT6XoL9r5UaMxpYiYTalUFRzM1UrL9rXq3J2KgVSvjX99jI1AsK8aesE6CID3cnDiCtE+m497aPsuRlE6yP0qhXRi6OzSjzTVrqZhDZzeBhzL5k4xbZTDl+TNaneavYLVcZ9dWB84DzdUdjb7m2pevrls2kufeel2qZ+HS8ODoJbL6mJ51K+riWebfCchSUm1Vnr+cb6YqNUeC5cX9bQnRuKE+3vJ4dKYETbT9djmM6MK6RieW78R2ME5N6uO+tJ/A52VeGOZaGsqi5VCse9Rfx7/f/Ewb5e0Z9TpFax5XWcedoQZvzrzW1a0wdzB+73NmlbfVTI2SYD0cGF2bonPvfUq/ulztWUqw9faov2Z8UPzz6ej/XfkpUdeY/2xEFsDpcqR3Rk9qvmxm39e5UzYXbo7P4mDeQBCi5/h8SP3q/nBhc+U6ptatcxEzWLSVbbgt06FSba5CDaYqdDB9Y1qpRd+GzZjXEm2lQ1vMJ/9tG+2Ozo1MRzKdPfg6nZHlJZEYMyz7DamC9u5MrlSWF7JIXtcnJjKg40K5Sdba8vcR/e9xpAWVXrE2jtTgZIOfrWo9bJEVKkoUF4MlEa8Fyw3g+YZqxYWa1lSlTffy0ER+FsubcQHp8v4TRXUA01QyT2zgAAk42wFlZ5dlLNwHPem9hAAgHxFsMxBzNDxJ/f3wzushZZWyvvDIC3A/niaZ2Yjo4P+Qv9AQe4mAAAAATw+AwLAgAAQJQrL1++/ObGjRv6IwAAAKCAiwkAAEAAXEwAAAAygYAAAAAQBQICAABAFAgIAAAAUSAgAAAARIGAAGOG189ZQ3avqUQ9u/befNd9o8TqsmA8TOQ0V7O0cIK/IuaUE9xfAq+46SafuXyMusBaM6hnwFnHMtpbL5MuDggWcuMlSnh5ErMqsE/W881cOTayJDuvPJpcl5fl3n4dr6s+dy6j7EbrmlcP81xFUdkr5KrF8bg6huDY3GuAcTKR01zTH26aLGRnaUC7ttYi17G31vWvwijnNkqYf9nPTDb1RNtaLce8f8ECX+XNyF7DR2U2iy3kdkK8KnW3yzkXrLziAe7z5WxmvIS2rxxzf1/TA3zaD3ZoadBEXutm6yqX446tXSSfc0EuFRZkeuXU3OvML1Kv1XwZoAoTJiBO6FCqIG4n5PXtsRwvaBSTWCaa8cxkNotkX5MrgPZo9a5KzFR2EdyZ5VVxlrdqrk5iE2rcSoiO3OebrKsRNn5mHR74hYkicy3I7HlxTg6FhdRdp7vWPc0s35VZ4o4ObHejWl24WiY60BaTGYN4fZbRObSPUtrMKrkMm0G2z9KsUGq2VAvLP1ed5+cOVquRupqcLie5Rjv5hmV92E8vNa/0euZW7fv0NU2plUofv7uaavQ4rr91DecYqRmm54e+4ay2yGtr/Z0VgxjlXiXeefa5CeZeki9yMp5lplwVdZcrgC7SvBYwoyyTLgdNMRS3spBuw3XNXBqb06oKayBfmGnhErSneQbuct0ylai3D1wMEyYglPbAP9rN4BfOaPeE1FQss1irXzyQHHRSE5aPS1NE5p9bDh7chCk917euQbQdrWsDcDtsntKqvhZXnU1yHuheLJrr2/doweeuHVDH3Kc+Lhxgj2h7c0BL+jjX7y30T+P64AT8R9vW+XltUaOt694r11PHCtJ69KIuEp+4pszyIcO9pAWHWhrdpPY8KOWuPHnIvnfRFiumDdSgKQdwtaNZGq2rKE6m5pyjWqmbdU70WN5nlTZ0SHYK7dg+cDFMnAUxv6EGB/ELVxpfhdkufK6jyUh/ZjgA1OeMVI57y8ye36goZAyWZq23cPDmdKFpBrR5KT3F9cVgmFwy5x57fSumIerJ7Roz3TnlqasAGu2zn15HpsrknMyH2kposi2YOvea1tN97upeHdcF142Fh1M/rZA4/vls95ISHKnGnx/HcJ/v9muVstNtZ6/9cgn7i9y84Lah6brK1Jx1OTuN1jETmUqUHQmxuoJxMpEuJh7oOVDH/kmlCWe4FgqZJbZWm0OVF9fEq2Jp1nor9DnrH46riWXdY+i6iJvuRZpyipskvsm2iFDmXo0rKDLIlnVTKEFk+edz3EtKcHRELTQzs0Kn5svE/OXp8+VgLPfj0sn7o4T9RW5s2ekjUlqqq10eeCuYzBiERLsp9vtSaxzu7ZYwj9ntYWlXRTMrKqPqJDVxMTCqa7QTg5gEjIsn2WRMwTA5bZHtuiiBZ5UYzXvVF9ZRwWFcovmCKAnGboftM2zDj9JSXWujhT2YPiZYQBjmaUP6nIp8ktonzvPrEw1LWyENoywcsUnt7Yi2p0pIlPcjJ/EHZ3NdD5PQFjFXhPKZl8F2M2nNOxIXUILDFoZqUzKzaFqmEKacO9m2VIw1lDkhoz7N11UzPKVRxFn2c+pSaU8bGCtTICBKdqJM10A5pEvCRwfXMuEZHFJ4GbfLJBHWSfqRy7gJtDuikg/4ItrCTFWNaA7qXiPTVCMkbqYnqg+F+bmNy8ZWPsymlJDCaZlB/EQPxCO7nnzaqGvG76MsmVOKTV2956RjFjHLEIyXyRIQciqip4Geq7nizrsR0mT1NCHjY7UGi5OHERdT7FyBCuId0YHxY/HUST8AyPVzguY6SFpyIBovHHi0XlITdWcNsrda5gW1eVoRIwlroMGMIXP/Zdoio62bw8zO2XbqydN3g3uVfUto0rGpTWZA3MuYdnpyqN4QjrZdznRZh0hA3ATTIzOueEZerdhOS3V1409VSYWh/cLr+ZNdUdcurd916wqrYnKYLAHBM014qqRlFidTGO3ZJ8mMGm1Cy1/XPG3oqZjmXJ7yKpVam+i5kf1yyqXnohL147e6OWiurqFdWrXeCo7PSomNX/XoUX9niQbmGmLEzF4CIYRfTjTTRZP6HXTSey3TFllt3SCxeqouU/5ekwGRibiX5BvEMcGhUcoFj6f592cslUQJEUgXnd/OYuO+WzhpIUJrdc0S9vY7KMqHld6LrUDI37aapmzuUT2ncGZXFesPtAtSjl5C1HIlc860UQBGw4rxtbpMilqviZfkqCMgQXPw+DwVMQgAwEVj3EQtv+Gc9cY2uBAgIBrDXdYia2vlnQEAxsH8Cq1324wp6ThWbEFAcCHAxQQAACCAx2dYEAAAAKJcefny5Tc3btzQHwEAAACFdDF9/vnn9O677+pd4+OirgsAACAfHp/hYgIAABCB6P8DJmg92G1pHsMAAAAASUVORK5CYII=;" vertex="1" parent="1">
          <mxGeometry x="840" y="584" width="392" height="181" as="geometry" />
        </mxCell>
        <mxCell id="rQuMdEPPs-8JV-t17J9N-3" value="" style="shape=image;verticalLabelPosition=bottom;labelBackgroundColor=default;verticalAlign=top;aspect=fixed;imageAspect=0;image=data:image/png,iVBORw0KGgoAAAANSUhEUgAAAYcAAADLCAYAAACF81/dAAAAAXNSR0IArs4c6QAAAARnQU1BAACxjwv8YQUAAAAJcEhZcwAADsMAAA7DAcdvqGQAAC5gSURBVHhe7Z1NaGRZduePZzU9Bfb0wh0omFZOFcSmC4xQpqfV5CwGAjzIFgmiNlmCAIN2KryIciEoZpFoMRQERWnRlHaCAYE6N4Ug0TjxQuBFJxVtZwphunoTUEOqjITsRU83tO2dfc/9eO9+vc94TxEh/X/wqpQRN+67776Ic+75ePf83i9/+ct/e//99+m2+eabb2gW5wUAAJAPy+f/oP8GAAAAEn5PHP+m/gQAAAAUsBwAAAAESMvhww8/VP8CAABwr/nZz34m/w/LAQAAQACUAwAAgAAoBwACHtDTz4/p+PiYPn/6QL8GwP0CygEAj8cff0ZPuuKP11/ST5+/VS8CcM+AcgDA4sHTz+mjR0RXQjFsffGKoBrAfQXZSgAAABJMthKUA5gh7NtPXTi8Urd5/PGxXMXT1Qv69JPnehX/gB4//YA2nzwi/hhzdfWaTn76Bb2SDer0abA+K7h68Sl9EnErJX34iHG8OPmKnquBSJK2kbE8ePyUPth8RI+65koEV1f0+vUJffUcVguYDUhlBQsJxwM+shQD0+0+oo8+eKz/NQUPfiIEtf5b0H30E6EuKiDG8eSjz+jjEkN5/PHn9NlHT1zFwIh/P3ryEX32+dNq5wagYaAcwOLw4CmJhbaEV/VbW1vi+JS+fPGartTLU/H4gydS6Vy9eKH6E8L+J3kSmq0POQZxfPolvdYvP9osEOyPPxbWhFYKwqJI+uBrea2vpPuE/gKZUmCGQDmAheTqO+N0eUuvnn9Bn3gum+o8ph9LxXNFr7/+mpSMFqv4XO1g8fYV/cJoh1we0NNUw9GnTtBbXMsXnwgFof7VffKBGBUAswHKASwOb79LLIRHH31OHz993Jzr5fGPSemG1/T127f0tV7Bl3YtPTDKRXD1XXa8wHJdXb3+OtruH67MVXbphzAewIyAcgALxCv6yiyreVXPvnl+UO3j6ZXEYy3ZjcB++7V2VeW5lrpP5Pn5Ybnjzz7SykVZA2VIrR+Xt98Z5QDA7IByAAvF21dfSP/+C+ObF3QfTRvAtV1KWmC/reFaEorhyyADCoDFBMoBLB5vX9HzLz4RSuJToST0a2IVXzthybiUhCJ48pm2BI7TlNZM15IJSH9qAthP6KMyqUqabobP6MEPvQwmAGYAlAOYIW8p8aB0f+gJ4AeUyMgsH/7bt0JJpFlCSthW79O4lDIpUjxvn9NPX+iTPtqk3CQjK24SVzoP6CdpUIKMIQPAbQPlAGZKEnyVqZtp7ODB079IH0a7+gf1x+OP6fPPP6bHlkR9kKz6Wd4rSVqpz8SlxFmlJqXUHFZ66o/zLYK3z090W2F95GqSV/SVUSQ8Pide8kBcYjrG1ydwUYHZAeUAZsrb5z+lVFaqADO7dT5LH1NONr9jd4t84C1x/Yh25lHl11+SiQNX6vPpplYur+kXQRzZSk999OOCtFK7bb714IyP4yV6fOzKMs8/8N5OU2fnAjAFUA5gxryl55+oh7+0vFTwNhIvvnS2uGChKh94sxuado4kLd/nfzFPKL/+hRDvIa9SiU8FxgO9+krHHgqD2Hp8/rUIeCuQF19+2sBzGwBMB/ZWAgAAkIC9lQAAAGQC5QAAACAAygEAAEAAlAMAAIAAGZBWfwIAAAAKWA4AAAACpOXAD+DcNvwE6izOCwAAIB+Wz7AcAAAABEA5AAAACIByAAAAEADlAAAAIADKAQAAQACUw0y5oZfPtmjr2UvxVxmqtgftou7Hs5dt3Q19vw8v9L8BuD3iyuH7v6IPH/5NcPxZ9591A41s93f0R9/T/9Ysv8ftw9eLyRB+F4dWARb7OKS6P5ubl8/E559R9Hd985Keif7b+9FrLk7paNKn3b116uiXbpVkXiPzEJmDynNm3bdc+aY/y+3C85l7bR/pGLLahOcrUKzWGMxReP/l/evR2mrW3dPn5P6iE3BBh9453WYdWt/sE52dxOccgBbJsRzeoW9+9T/oZ2/08e0P6PeX/pY+fO+f9Ptx/qD7d/T4+0TfffvH9Pf/ol9siP5uWuSFj93+GY3ED6p1Id4KQjCMzsQ1bdOKfqUYISz2xLU3pExuri/1XxM6Oq2rZstxdpJt7VycHokRZNGjwb5734+P92jdmQC3zf6gR2ejAoVkIRXM8IiWne/XPq2Nh7nfrYs3Z+JLuemNJeXm5YFUHr2efsFGKqMRXQ7288e98pD6YnbG59AO4HYp71b69Y/o1a/F/7//T7SsXgkRlsSfLv2Ofnv93+jn3LZlVrbVD2pyNCwtCOaHFdoWAmG7vGZoiR71+0J6tbY6FYJ7IFa/kzHF5dsFSRk7GIiWzdBZ3xQCVVzSmxJfCiGkD44mcuHh3guliPeyJL8ed6+7pP/tc0Gnst8dWtOv2EiF2BvQjtV/Z32HxNfZU6Qr9FBO33mmcgWgDSrFHH7zr++I//6O/nPMXfS9t/Rn7/2jUCLv0/+9+k/6xfaJ/6DawHIRyMN1aV0chq+xgGC3gb/6VG3Tw39fuUpEX4G7JcM1EnGJBMrSuHgiWrS7wcK0RethVa1+Y/3fvDwhYT/Rw1X9wi2jrBZx/qpK+uKNGHe2S+nicERnQvhvRPvVimVt1bMAO7S6Jr7MniJd6oavAdA2lZTDH/zH34n/vkP/P3AX/TP90bv/j37/X96lv/r2D/Vrt0WHltiUmVzRtXqhBVgoD+loeTd1O+wSjWqYK6wYTrqpK+F4V4jNqOVzRqPhmNa0uyRzBctCf3hEZLknuM8qbhVenW4oDduS9aBWv2Ip7ynPGzofT4TZ8LCCa60YKZjZYolLZgslpOucX7nklmkpdluEsj45E+ffyXD/3VyT/HTkwx31ZaYr68scew2AtimtHEws4bfX/1V+sVN+R+//6G/p/e/9gF796gH9Rr96m8iVlRjVdWsrq2u6EjLMcSGsbNNxDZ8Qu8IcQS99yiw3Q0neG+xk+rMVQmmdsE9m1+tzm4R+cK0pHi8rjowxK1dMe9bDyga7jc7IuUwd0M0X4mJMQ9cqCuMAbpvR5YD2g7hENtmuoWyu+QsRRdyTA2GN5MQixIfFiCuw1JUut8v2vuAABOQoBxb6aabSn4rfDweoQ5fRO/TNt+/Sb+kf6XFBsHpxWSJp2YsVfl6Ash6q75C8LBjNzTnxwjsm3Kq7Ioz1MGonftNZJfaY2ApLBnR7a5R/mW6wmY/QikrbcAxK3ChqOb6u6HXF3fMwGWizDyYBMBU5ysHLVnqTk330rw/o59fvEH3/G/rvwrq4bdQqLsPEbwQVnOTVOCsItUKtm0brxy6GQpjot2qS7Z6oRhLIbSV+4/vTs/zu05HEoEbl78+kMX+NykDrDTby3VTaEgBgnqkUc8jjN1d/LLOZfvhenecbpuGGpPu3ot+4jPD0hS67hOTqdV+5SEaVFYSOXRC7PcxKeF8Ks2mIuRvSNNUqrNC20oB0eq5fsqgzZzbGdcVpmSYQvVnW91Ma/WyA78KKoq22y+t6ytCPc8kgtb2AsJS/sMj437ZVln3felTD0wVAozSmHJjLb9+n76Q76lfZ6a4No3LJWTdUNOPl6i2eP35zPhbv5PxAO+u0x0LUinOouIeHDjwmGDdQU6tl7aqJrXylNVXosomwsqFW3uOxfsFimjmT6LTMowM6aCEQnZATx3HRiqSGGyp6v01cxzm08u+rZAbpbTL3LUhP1QF6/77pGEWe4gWgaRpVDkR/SD//9gfi/7cTf+CUz6HQDL3BfvXnBYSAV3LByxTSee9OMJgzgpz0UR0Itn7EndU1IRrP6MTEJDi9dOg93NVZkkrTFuYXh9O4lbSrxosT8LyMOE69aWXL5KSyuhiBOXHHzlSZswxWZNqS6LswED0NWdlREUzwPpLdxZllWTEmZUXVTYJIldKB1b95aM7PcoI1AWZBw8pB8Osf0V+1FH/gH3Bqrm/RcLwm3TPZDyrlI91EQjI4/eonZf3sn/21MQ2Tc2vXkP2kshCcO2KJmLgUhle0GbiMVmibXVLaxcAHp7VKI6QmnfW94BpUZusUD9hp6yFG6TnLwvRd2qoJs5X4KNJxSglZyjqH6DWJg+9N5jXlWFGlYCtDnNN2Qan7FmZZ1bYCAZgClAkFoBZW/KjVvbH4QUq1zUbdRRAAVWH53LzlAMC9wLiGWn5yueBJbADa4o5ZDmqVxRkjeXCMAqswMD3KehivtfV90tYJP5mP5ybALcLyGW4lAAAADnArAQAAiCItB/UnAAAAoIBbCQAAgAPcSgAAAKJAOQAAAAiAcgAAABAA5QAAACAAygEAAEAAlMO9gp+43fJ2mM2janvQLGr+m68+aND3t3CnXnAfmS/lYLaV3noWFrrnLbDFe+39UNqFt9GOXhdzW9dmSli2ulFcnNzrZ3LmgLfOlt+LDCGm+tZtrCNT5ulz2W2d88rvYf69yuq70bHqGtvOvkrJb8Q/YoWneDsZt517Hr0/1NlJ9n0B95a5Ug5p9bL2Ct3fX1QJy/7udoUCO0J47B3TcQPKRNW7yN7i2hQLCjeY0+VEe1y3Iq8+g1trmmtJ8xbcvtCVwllvMW7ackGetXET9cGbHaussd3fjNTIcD+vDu++SiWmdnPNPY8sjDTF1uPgzjKHbqUe9fv848JqpllWaFsIiJnt35ZZ/YzJqIDGyF1J+7S5o4opFZf+VCT1sO0PCIHJRYn6QjG486CU4NSb5zU5VqNoalb4uTg9oklvQDvWNSX1tZ0a4bo6X/S+gPvMXMYcuhuq1nAp6yHiIghWYGzqs9/ca2vaJa4AcURXj74p75+gFbQ/ODmv6zZQY/ZdCcqN4F+DfX18+O8rV4foy5of1SYj5lBizpM5S97QVetiJTkzy6eK83PFPS4nqpVLcenPbKTAFN+sqhVly9HsWKfbqlsrlmA+zT1wtxmXJU/b3nocLBxzGpBeoQ21xMm3HlgAqfJZqXmtK3oFwkoIpaGszqbaiWZJ5a83D9PPBiUw+RzSHaPb6Epu07sg8mChrLdq1uM93iUa1VBKrBi4olnaT+QaJWc0Go5pTbsrMlfRVebcI75CZt2Q4VLSSkPVBzclUctZlBeHvHW7XYpUCczW6lY3OlbRnXSxLlOtstG6dnms5rQqbzohu+x47DUA5lQ5GEGSZz2YldquK8hMTWDHdGb6tGv5ZVUZSbG6EkIucTEEhenTcyRtknKgp96qvUmuSVaGtF0KXFayhk+IS2C685NdfL+4BnSFOefxsuJwxhyr7ZztUlJKI13p58ct3HKio8sB7R+HJTfLu2ni5UlZMYrRBjQ9VlkaNBN/bF7w/PoqOsZMZMlTost6BbHBHWVulQMLEmU9uMXzE4wrIvJjL2Um6x+Eu7paIv5ogrMaTJmuuHwZ1Dh4hd+8heJdY0IJF8a0cy4wtZ1T/av7jLiUlNLoihFrOktiLc2nifnH0yAtB17ZUpwupyEW9BUHW466RUpLY7X7Mxilax27faUsahiWAGQyx8pB/L6MGyKwAlKyTefmMO6n5Bixf6JNVICUV+NpAfpYqmIZ2EVlj39IR0KOTcNUc+5ZLmbFvekv8aNKQ1seBUooCbyOwjmbtOE7aWmsZVnZ3nXm1Cx8AJiGuVYO/APbVhKSTs/1Sx4xUzhNiW2GJN7gHKHLIo8ywtMXuuwSkueSq9UzGlVWEDp2wUXwk3HvS2E0DdPNue1a0ivuSBxAKQ1bOapD6eWi1Eudv29bKMZiurzOXGjUpfmxaiZXVE6Vxa8t+z71qGYSFLhHzLlyEKxsqJXVeKxf0JjUyMhKUPprY2mRVdGugUZ8sXI1FxcUSrjk/GA767THStJyZUk3jo8ORCZkumxq0tCcJ66ll2p8vttODFy7aWyl5iq3wtTLILaihfDU7iafNsaacX8zUTEqsbpQ9zkzbdiM1btPOkYRswjB/WX+lUPyo57IL3CKyQhxYxKclskrtv5mE08Bq7hHkN3DGTtVt5QQAl7JJq8vnXvvBIOD/nUg2PpRq4DnGZ2YmASnl/rBUuP3toT5xeE0bqUKc87XwCvomCPcCMOjjNRS+WRw1j006ZhFQj4S/DaB80hmFWd11YrvtDTWeFxLuQjdsfNrnO3Up900ayJRhAfWNd28PJBPXA923LHCmgAxFkA5CLT14NNZ30vSKI0pr7Ism3vYK3aOrZMu7dd4ali6ify+xID5aV0/+2d/bUxD04bjBOwass+ZZE1pV4ZM0/VdRiu0rVNvzfk4rVUaITVpZs61MGQiLiX5ZHBMaWiUYmRZmitxEwslUaCC6D3Q85KZvptDa2ONWppK6LtjN25D7wlpDlyL67RdXeo+he7QxixtcKdAmVAA5hIrXtTqXlj84KTaZqOOcgR3E5bPi2E5AHDvMK6hlp9cnupJbHCXgeUwFWrVxY6FPPhBO6zKQHWU9TBea+v7o60TfhK/KT8suBOwfIZyAAAA4AC3EgAAgCjSclB/AgAAAAq4lQAAADjArQQAACAKlAMAAIAAKAcAAAABUA4AAAACoBwAAAAEQDk4qF0v0x1R/X+DZlDz2l4dbn3fYjvCAgBKMVfKgbd+5hSq8PBq5M4Rasw54+OttMU1xAQhbxMtry9DiGXNR6bM0+ey2zrnldtoZ4xVfzar70bHKre5ztvPRwt37iPeAR3mnkfvS1SywD8AIGQOLYdY7d5qVdfqI4TKnjhfhV0w8wvJCzGnC/mEgvCCeLfnXq/H+zkn+/iHuPPBNYd5y2ZfZkrhrLf/Tudtn9bGTdShbnascpvr/mbmPTV1B/h0AVKJqV1Ec88ja0YUVWEDAGQBt9K0ZFbdYjIqbzFyN8w+be6ooj0F2/0nJHW17Q8IgckFg7icqbt/mlJ2U2/a1uRYjaLJrCxzQafyWnZoTb9ic3F6RJPegHasa0rqMDu1xlXNiMIqbACAKAunHKR7g2MAngvFrBoT94c4cl050TYlYgxBhbOcal+ZZTrFebiyGxe60cqlqBhMHlJgCjGcVXBmOpoda9EW0ReHIzoTwn8jei1asQTzae6Bu721LLXZ9pbXANxRFtNyEIJ4KCufKbcCVzYz1bHePNRuDV0Fy3Y1sGLgil/GHRFrU4f4Cpl1Q4ZLSSsNVTvZlN4s5x+XwpPdN4n0VAIzVlGtERodq+hOlqRcpmi5YqHwT85Ee6+MZYKukR2rdazKak7ILm8dew0AUI45VA4TOhqmK/twdc/0adcqi6hKLIoV5WA/datEirZziUjHxRJpUwiXX2TF4vhvIvWKxYo7y6WklEa60s+PW7jzMbrkkpBhDCbbTeMTzq88hl79aU3TY5UlKaMIC+VAjCEnFmEK4ZdGltokunQLMQMASrAQAelCn7kWAu6KconYq5BPmTblMDWAEz2T41JSSqMrzq7pLIm1tBCtUf94Oh8ceI26ryoRzq88uNa0bpHS0ljt/gwyg8kukg8AmCX3LCBtpUjKYygEkn5rWjwrxKy4N33FFlUa2vIo8I8ngdfRoWWhKCZt+E5aGmvIBR2OzoTlt5HvGtOLAABA+9wj5cCKQRdsT1bM+1KANYPtWtIr7kgcQCkNXlQPLSW1RUI28qsFqZc6f9/JGNLWz+V1ZCU/Hc2PVTO5IkeVySC1fx6tuM9G8t92XCjmJlKxjB6V9q4BAHK5P8oh083THIlr6aUdxLUxbhpbQbmKqjD1MoiTaCE8tbvJp42x8uI/oo1NHCdyDurvyn9Lb1Nm2rAZqxff0TGKWAAbAJDP/VEOxlduuV8uDmu4lYJUVgsjDI8yUkulX13Iu81YNk5OSqxDJPgthKvJ2PKHxRlatR6Ca2msKoPokurFiFNFeGBdk3lozs9ygjUBQH3mUDnEs2mmTTdlQbXNQVftpuCD01pZqDaHFoZMxKUknwyOKQ2NygRyV9oxjIVyYglIzsTi1FyT0mtfY52H4Fobq4wbTPHkMlsZOgXZXOPwiGiwH2Zwycyo2AOIAIBCUCYU3DJW7KfCNiXV4f2X1DYbUz8hDsA9g+XzPctWArPHuIZafnK54ElsAEA+UA7g9lnZoEFvCtdSIWbLj5wH6gAAucCtBAAAwAFuJQAAAFGk5aD+BAAAABRwKwEAAHCAWwkAAEAUKAcAAAABUA4AAAACoBwAAAAEQDkAAAAIuIPKQRf0efbS29a5BDcv6dmW2bSuTJEaML+o70GtHWlLob9n0+8ICcBcMieprGqTNFlDJhO3bnQ2dTd2059b3vXqQ88JvFW4rLLDpTi9HUhZqamtSZNN5m5ePsvcrTTWPu1fzPSurp8QQ3+Wdzrnmt3u+WL7n6fjzWoTnq/gHlpjMNhjkcjruYxfv+lfdJB7rUXtcs8BwOIyR6msK7QtFAUrC3nofbT5B5m8VkoxTMM1yR2e53Tzf1WbgJnQUbNVfQLOTrKtrotTVyi7xOpT+4LTbcO1pmN1KLJgBbMlFMOy893Yp7Xx0LES5Jbjsb2VZD0OJfBzKdNO1u9oc48oAGYHYg6Gm2sy4nd+6VG/32PpTe14S4TgHuTtmHpBUuYOBqJlM3TWN4WALa4LIREWw4GQ1uEqvkPre8eW5aDGGSh6tjhkrer9ZAESpWw7Xb+jsCIeAAvIYioHuaozsYGSft+cz3C1NF6N8iIxKSJj98nCwv6sOPxTyhWtjHOwiyxtF/V5F43fvB+5ru4GC9MWrYdVtRqO9X/z8oTOxLsPV/ULt4yyWrILECVkbdfdWac9YWk47qcYZdsJZNnTTGUKwOKyeMqBBadY1SUuJ13dLTfwWPAZWUWNXxN/y9UitzFLU/6s9s8nbgxdcS2Q3ZMjGm69oYe6HbtMWNk47eqM32GFNri4cmvWQ6QMqUTXaY5UuJuGi0OONQmLZaNQ4ktroMz5lQtumW6jdLQqezohq/osAHeCBVMON3qf/t3UrSBWeTtSCJ96wsxQ5zOG9LPOKtLUbA588+xPT2MjxmVymRRMLjkWU3Df9Z0kqH7bsx5WNlhRnpHj6ZE1pYuEeFjiNVR6bpvR5YD2g7hENmViQrI86G0hy57a9xiAu8FiKYebc1KLV1dA5Ratr/MZg/5sTCDF3Qn+anWJZDOzrJxmLA7Gehg1UFs7QmeV1qRxkio/GeAtrMfsBpv5CF0zaRu2rNjaakXH9bpi9gEAdVnImINfRN+kYOZR5zOG5Yh/Qgn0ekwzFkMSyM3JLKpPh1ZZOyTKTwd411YrpAYX01nfIaXjyj9TkihaAECrLKRycFNczZHvmqjzGUPMZZCmllZnmrGkrNA2+7Z45X2uX7Ioo7xiSs9gXFecpmkC0ZvVBlgCXU/ad2FFUVaYuBnllOHkiqBGAKjPYimHzhJJB0wV/26dzxi0eyW2WpV+7UI3i8c0Y4khazEL0Toe6xcspC88noN/cz4W7/Qo332v0zSPDuighUB0gnxWQFxDoXbQiqSEG0q6/G6L6ysxl/mKFoBFZMEsB+Vrj2YAZW6XUeczBu1e8Xz7nLbKnqD+ZpUnsJmSY+F/s7upMKBgBOZECiiHzjopWeqdSz8r0BvsFFoqKzJtSfRdGIiehqzsqAgmESCSKcbpyCb4XT2GUx9lQRYpWgAWj4VzK3XW95JU0sRnf9LN3SqjzmcMsc+qzNa8bReymWYsUbT1EEOm6Prn0k8Xl8nhT/oubSGF2Up8FOk4pYTO6KREbm70msRx0rW2z8iymuznVXScJ+nHVs5l2wlqWZAALAAoEwruIHpPpMr7a1VF7Ql26e/rBMCCw/J5IQPSAORj3G0tP7mc9SQ2AHcAKAdwN5EusTY3xTMPNEY29wPgDgC3EgAAAAe4lQAAAESRloP6EwAAAFDArQQAAMABbiUAAABRoBwAAAAEQDkAAAAIgHIAAAAQAOUAAAAgAMoBgFrw/k2xMqhFqM8V77gLwGyZr1RWXXw/pE+7x2ltZtACydxzGU+v8BDvUqq2ok02mONty9VLkSJFkfb2veViR5k72urP8hbkveB8wcbkgnS8WW3C8xVszGeNwWCPRSKv5zK8/uA7HJnPrM8CMCfMbSqrXyltt39GIzHY6qu0OwoLl61n1OR0pJXtJnTUSlHnlLzSphenrlB2SetPp4cvYN02XKeat9suu1BnBWO2NU/PsU9r46Hz/ZM1tb19leRnhWKwv7+7fd7G3LtXssBRm/s+ATA9C+FW4j38+UceFK4BDdOjfp+LG500qnhShOAe5O2WqmpV9wcD0bIZklrbxXVIpcXAhZBCS6ND63t2DQxdU9up8HNBp2y19Hedz65s70pF4CpcXWVvfJ6pJAGYNQsTc0iK0furTnYBCKuCzSBzRBWIXG1b7axGXEVsa8svcs979bvWimzHxV68c5quVD/qiFo5OWNg5MpTFpNR5w770v5q6bawCuvY/ZSZDzOO4A2i7oaqHd2a9bCqVs2x/k2t6oer+oVbRlkt4vxF/svYVt031yRrwgUl4eK1r2Up00wlCcDsWaCAdIdk9Ue7cDwLOe3bTlwAukqYI/e4nW/uk1v6szSTIxoOr2jT9CNWgKZK2JuH6RiipUDtMeyL1fHZKFQi3P/WG3qo+3ctJrWC5f4d94lZqpadj1xUKdP2rIessqA3dN5CreqLw5EU5MVlTpU1UOb8ygW3TOXKRke+twJVynRCkfLkAMwFC5WtpArHm9rAZj/9XTdQaOoMJxZG2s419+uV+RQdOcFxVeJSiGohkJP+gqL5kTF01mlHCv5TT0iy0E/7N26Ry8KCyGXnQyBec5SKhzpne9bDyga7jc7I8fRcnNJRYa1qy1rSR2ihuW1GlwPaD+IS2YQr/xBZGtSns0pcbnxydOAqVWHJ8W0JkKVMy9xXAGbDQikHh5tz4oVm7MfsmOw57RpB/8iXnWWkdiUY9Bj6nr8iXgjfX5GqviZFS8yy81EKYz3UtK6K0ILUVlgywFtYi9mylvThKEJJ2oatLrbEWtFxva64MzZs1e3LAkOOAjsgWlPrBwAWioVSDmrF5gpPVygrlNB1ibW7bZIi9eZwUh6boex8FJEEcnMyi+rToVW5zDYKSwd411bFO82RxKlGfjwpm0IlnIt2+1nK63hvXSmRQJkAMN8skHK4Ienq9XzCMbM8TctMmQfz3U/RVUezue5l56OYFdpmfxSvvM/1SxZlFE6eQjauK07nNIHozSYnQqJrSfsurCjxwHEmXgwhGx3LWF5qVPEB0DYLoxxuXh6QzBQ0rhnj442s9KSFYVwUnSVha+SvCFUsw0NnnzSCHkOrCqrsfFRB1mEWonU81i9YSHdaPFf/5nws3ulRvidPp3MeHdBBC4HohCD+k4VWJCXcUNHvSwZK8UViKddXYo7mw6IFIMZCKAfz5KsT9BU/Zuma8Pzi3Ja9Nf1N8+Rr3H/OaacmmNlZXRM/3zM6MZFETgf1npCdDjWGaAaTTF2tSFQwl50PAZ+X3VqFAQUjMCfhXHTWSclS75rE3PGzAr3BTqFFpIL5ou/CQPQ0ZGVHRTDB+0h2l/N9icaKQtLvbTgXyporUqAAzI65VA6+b344XqP94zD42FnfS1I1k7Yyk9PNROJ25klZ025EVlZPkjk0VO/LVFUOLqq3myA21q2Tbnz7hiL88WpJVnY+KqGthxic8RVckzghP10cBoojmL5LWzVhthIfRTpOKSFL+ecQvSZxnHSt7TMyrCb7ORc+zNzH5qK2NQfALYEyoQBUhh9GzNmbqRB+yHFEl/5+TQDMCSyfFypbCYD5wLjbaj7hHHvCGoA5A8oBgDpIl1idzfPMw4rupn0AzBtwKwEAAHBg+TwT5fC/3vwf/RcAAIB5RCoH9eft8e5f/on+CwAAwDwyU8vhfz/8c/l/AAAA8wPLaASkAQAABEA5AAAACIByAAAAEADlAAAAIADKAQAAQMA9Uw6qcH9YWhLcH3hfpHn4DqhxFO+MC8BsmKtUVrPFcQiXfmyiKM7d2vBMzRfv/JkxN3rrcdEguF7eQVQWouvvRmtJZ90LLlgU3eE1ss05b7GenJe3CR9dxseqP8u7ucb6bnSseeMwG+qJrjKvU3+HeDiGeNsS7XLHAsDsmNNU1rBOcNPV0u4Kqg5F9v4+puhOuMGbLsvZ4/oPeXUO3Hthtj33F7ssnM1W3ek926e18bCBFXqzY5W1qmP7GskaF0oxZMJKTC8ucs9Ttp0sRFRnfyYA2gcxh0XGVH8bn4s1r88NnXOFtVjNALkraJ82d1SRo+ISmoqkrrT9ASEIubhPuHpW9ZSnttCaHKtRNH6FHRbmwjRhS4drOWRxcSoso96AdqxrSupUW7W2y7YT2kFVw4vePwBmy8IpB7lKldXTVPyAN4jiI7pCNRXP5PGMMhexTjtxeMtNec6tQ7qQK0LVxjlfweclfhu/ApzVtzmCbkwfyRumUH+ktOXNOSnd4BftN7uCPqQVrVyKS2hmIwWhEMOmemuzNDvWzK2yO+u0J1b3+YpMK5ZgPs09MNt3l22nkCVHvdcAmAcW03IQwnC49YYeWiZ7tASnWA3yilaa9vtrNB66PmBJ0G5AvbNRRNmc0Wg4pjXtunB96QWf99uIY3fZEuj8vo4NmPdNNbKYnrGJr5BZN2S4lLTSULW4TWnRk2zFaXFxyPNnl/RUgrC1+s+NjlV0J0tzLlOtss26pnis5rMqGzohWb67bDtN7DUA5oE5VA5hKchQULN/eTsRSEZApgX8zYpzN3V18OqQBbf+pyLeTpXgPBWizyWsBVzm85E2Ai5Hqf6dvu+sXE09Y9sNIV6TisPuKFojOdulpJRGutLPj1u492J0OaD9SPwncNNkEi/zyYpRjDag6bHK0px1ub6KjjGgbDuDLDlqf3cBmA8WIiAdmvv+6m+JpHWeLL+uSZbo9YVWZ0l80sJZmabEC8gXrcJTnM8b906WAM15v6zLwdRITowH02fEpaSURlfMmEbPSdzvnd4Lts6i7qtKhPdWHoHSZloaq90fACCTuxmQ1qZ9Wdh946xkR2IlX4Eyn4+5GWyy3RAlkFkvbDxoW0WvuDd9pRpVGtryKFBCSUB1dBhYVKlSbpCWxlobvcIvpGw7AOacu6kcfAuhADsWkB7l02fLfL7IbRB7X/nIy2C7lvSKOxIHUEqDF9VDR5kpXVaUUqnrJtsWirbYxOAjK/npaH6smsmVsCvrk32femQbf2XbATCv3E3lELiZNL5FoZVIbX9vmc8bV0jW6tqko0belz7yWCpqhMS19FKtuH1Xl7h47aZhX7yvyPblSrswpdKzUBIhPLW7yaeNsWo3XV0y04bNWPV9KtvOoGMURZYlALfNHVUOJrNllGb7cKpoEPhcoQ0haaKZTn6qaZQyn1dtnLEI+KlfFWiPjFXA6bO8Su5vrosWGu6XV9DOyTRGGB5lpJZenKonf+3+EkyaZZGQjwS/TeA8klmVXmNFWhprPJZUllQRHljXdPPyQIy1R4MdM9ay7RSwJsC8MofKIZ7REpOHeXTW95KnUmUfwyva1KtOG25n0kaT8510aX8vJphCynw+GIs4OJvGPCQV60NltmZt4RBDC0Mm4lKSTwbHlIZGZQKxLM2faGOhnFiCjzOvgjkQx0m33jYlrY1VxgMiLin7GRMdL0quxV4kcLaYuE7b1aXuk+eCLNtOUMU6BOA2QZnQW0Xtt0O7VYQ+aI4btXcSDUor/3a5W3t9gbsDyoTeOmp1X7TiBW1hXD5z8kRy1hPbAMyYbz//ayiH24L97+xekHGELH8JaJ+VDRr0irKdbgPz8GNkE0AAZsx7n/xPuJUAAAC4wK0EAAAgirQc1J+3x7t/+Sf6LwAAALOGYwzsSrKZqVsJAADA7Jkb5cBwcHYW5wUAAODy4YcfQjkAAADIh+UzAtIAAAACoBwAAAAEQDkAAAAIWGDlwPvS1Nz1M6DJvuYR3lPI20Qul6rtQbOo+a/+fdT3reoulQBEmDPlcPeEEm+9vbX1LF4UX+8G2rpSkltg92l3VpvNma3GY/MQmYPKc5b0X7B7r7X7ang+9bp7pGPIahOer+A7bO8Aq4/g/sv75e+5pPt1PutXutN7R52dxOcOgArArXTnEVbR6Iz6u9vBNt7ZCCGzd0zHDSmTtKLdhI6arQoUcHaSvbC4OPXredjE6lv7W2y7bcw27GUX6lLBDI9o2akcuE9r46GjIOSW5d6eSxeHQxqv7Vuf26U+ndHIVxCyrsc87B0FFh0ohzvPCm0LYTL7LcJ71O/3WlzVCsE9yNtx9YKkzB0MRMtm6KxvCkFccpddYTEcHE1kSVn3XihFnG7ZrcbZ86r/cM0Md1tvXUQqKF6kdv4trJQHQAGLoxws10Gmy0Fgdj81R2CyMyX7ctuJ41Z8ub77wF0Zquvz3QnxmEnRXChXiegrcLdkuEYiLpFgSsycReaqu8HCtEXrYVWtmmP937w8EevsPj1c1S/cMspqyS5glNDANt6yHOq8bEsOFpbFUA4scKRrRJvU+2s0Ho7Ej8iFhSFXH0tMb12Ny5FTJfsK24kV59kormwag4XykI6Wd61rIBrVUEql5kJyRqPhmNa0uySz6AzPhypn5vRZxa2SrHZbsx4iZUwlun5zpELeNFwc8vdGWCwbhRJfWgNlzq9ccMtUWFJa3I+hsER6g51gy29VDnVCWWXLASjDAigHITDlvve7qTneWac9Ftb6n4bA9A6KzJftK95uRwi2ydGpJ3ia5Jpk1UjbpcAlJ2v4hIrnIiUmYFzS+XD71PWjbT8/j5cVR8aYlSumPethZYPv5Rk5l6kDvPlCPCxPGy4E3DZc6nU/iEtk47uKYsiyoVF44WCNTyxcelkV5GQ5VKLLesWyAZAsgHKICEymsyTWV0UsEVvYKSX7ujkntdB0hcl0BerLoMbLK/zmLRR/LgwlXBh6PmLCrboLw1gPowoWRwU6q7TG3VsKSwZ4C+s0hwHpUPCmbTgYLW4UtaLjel1xt3x0kkAyvl1aljWqc9yiAEzB/CuHm2shjsvira62hmLFqN9iKvXF8svuSxxitdYuSgDwajwtTu/HF8pSMBc1WI74OpTCrEYSyM3JLKpPh1ZZOyQKSwd411YbybwydNZ3SOm48vdn0qifhxMNOGOpxRgOuNfMv3IoZSEwLAx18fhkdbUvf8AJpftSJPEG5yjvRmDKCE9f6LJLSJ5Lursi6YqFlJiLGsTcFGmaahWEYFMakE7P9UsWdebMxriuOJ3TBKI3q9y0UuhnCnwXVhRttV1el1OGkyth45ahYr8AVGAB3Era1eKvunwrwLg+cleIJfvSSqQRn630/8bzzm/Ox+KdHmW6ojkewkLUcmVJN45PrbmogHbVxFa+0kde6LKJIGs5C9E6HusXLKaZM4lO5zw6oIMWAtEJOXEcF61ISrihovc3E+UmFZrSvc/XV2KO8hUoAEUsgHLQbgLbR80plUPvgSYt0G0Bxg8Oua6Ukn1pv3g006nq09tCwCu54PWl896dYHDQv7AAOBBsCd/O6pq0Jk6Mo7n2XFQhMm8CToVlT1t/03pYjq+B3VjOxcYwAnPizb2gypxlsCLTlkTfhYHoacjKjopggveR7C7OLDMxpnhcS6Uqu59j6zCeLaWsuSIFCkA+C6AcWFbsJU+jSsEzvKLNwE2yQts63dT42TmVUy68Lcr1pdqZVE3T39ZJl/ZrPDUs3UR+X/pJWT/7Z39tTEPThuME7Bqyz5lkTemYxBRzUYXYfKjM1ikesNPWQ4zSc5aF6bu0VRNmK/FRpOOUErKUdQ7RaxIH35vkmqJWk3LDuZ8zbsPQzVnbmgPAAsV+AJgrrHhRre1L2MoY0WVWmisAJWD5vBCWAwD3B+Nuq/mEcwNPWAPAwHKohVqdFSW2Zj6kBEAuynrgjfaqfX+01cFP2Nf29QGg5DOUAwAAAIetrS36d/wXRoyYHBmYAAAAAElFTkSuQmCC;" vertex="1" parent="1">
          <mxGeometry x="1340" y="720" width="391" height="203" as="geometry" />
        </mxCell>
        <mxCell id="rQuMdEPPs-8JV-t17J9N-4" value="" style="endArrow=none;html=1;rounded=0;exitX=1;exitY=0.25;exitDx=0;exitDy=0;entryX=0;entryY=0.25;entryDx=0;entryDy=0;" edge="1" parent="1" source="rQuMdEPPs-8JV-t17J9N-1" target="rQuMdEPPs-8JV-t17J9N-2">
          <mxGeometry width="50" height="50" relative="1" as="geometry">
            <mxPoint x="760" y="780" as="sourcePoint" />
            <mxPoint x="810" y="730" as="targetPoint" />
            <Array as="points">
              <mxPoint x="800" y="754" />
              <mxPoint x="800" y="629" />
            </Array>
          </mxGeometry>
        </mxCell>
        <mxCell id="rQuMdEPPs-8JV-t17J9N-5" value="" style="endArrow=none;html=1;rounded=0;exitX=1;exitY=0.25;exitDx=0;exitDy=0;entryX=0;entryY=0.75;entryDx=0;entryDy=0;" edge="1" parent="1" source="rQuMdEPPs-8JV-t17J9N-2" target="rQuMdEPPs-8JV-t17J9N-3">
          <mxGeometry width="50" height="50" relative="1" as="geometry">
            <mxPoint x="600" y="730" as="sourcePoint" />
            <mxPoint x="650" y="680" as="targetPoint" />
            <Array as="points">
              <mxPoint x="1280" y="629" />
              <mxPoint x="1280" y="872" />
            </Array>
          </mxGeometry>
        </mxCell>
        <mxCell id="rQuMdEPPs-8JV-t17J9N-7" value="(N, 1)" style="text;html=1;align=center;verticalAlign=middle;whiteSpace=wrap;rounded=0;" vertex="1" parent="1">
          <mxGeometry x="740" y="730" width="60" height="30" as="geometry" />
        </mxCell>
        <mxCell id="rQuMdEPPs-8JV-t17J9N-8" value="(1, 1)" style="text;html=1;align=center;verticalAlign=middle;whiteSpace=wrap;rounded=0;" vertex="1" parent="1">
          <mxGeometry x="790" y="600" width="60" height="30" as="geometry" />
        </mxCell>
        <mxCell id="rQuMdEPPs-8JV-t17J9N-9" value="(N, 1)" style="text;html=1;align=center;verticalAlign=middle;whiteSpace=wrap;rounded=0;" vertex="1" parent="1">
          <mxGeometry x="1220" y="600" width="60" height="30" as="geometry" />
        </mxCell>
        <mxCell id="rQuMdEPPs-8JV-t17J9N-10" value="(1, 1)" style="text;html=1;align=center;verticalAlign=middle;whiteSpace=wrap;rounded=0;" vertex="1" parent="1">
          <mxGeometry x="1280" y="840" width="60" height="30" as="geometry" />
        </mxCell>
      </root>
    </mxGraphModel>
  </diagram>
</mxfile>
